<svg width="750" height="497" viewBox="0 0 750 497" fill="none" xmlns="http://www.w3.org/2000/svg">
<g clip-path="url(#clip0_5_2043)">
<path d="M750.33 -2.72H0.329834V497.28H750.33V-2.72Z" fill="url(#paint0_linear_5_2043)"/>
<g opacity="0.5">
<path opacity="0.5" d="M18.56 1.78C18.56 2.76 17.76 3.56 16.78 3.56C15.8 3.56 15 2.76 15 1.78C15 0.799999 15.8 0 16.78 0C17.76 0 18.56 0.799999 18.56 1.78Z" fill="white"/>
<path opacity="0.5" d="M32.0901 3.56C33.0731 3.56 33.8701 2.76307 33.8701 1.78C33.8701 0.796932 33.0731 0 32.0901 0C31.107 0 30.3101 0.796932 30.3101 1.78C30.3101 2.76307 31.107 3.56 32.0901 3.56Z" fill="white"/>
<path opacity="0.5" d="M47.3901 3.56C48.3732 3.56 49.1701 2.76307 49.1701 1.78C49.1701 0.796932 48.3732 0 47.3901 0C46.407 0 45.6101 0.796932 45.6101 1.78C45.6101 2.76307 46.407 3.56 47.3901 3.56Z" fill="white"/>
<path opacity="0.5" d="M64.4799 1.78C64.4799 2.76 63.6799 3.56 62.6999 3.56C61.7199 3.56 60.9199 2.76 60.9199 1.78C60.9199 0.799999 61.7199 0 62.6999 0C63.6799 0 64.4799 0.799999 64.4799 1.78Z" fill="white"/>
<path opacity="0.5" d="M78 3.56C78.983 3.56 79.78 2.76307 79.78 1.78C79.78 0.796932 78.983 0 78 0C77.0169 0 76.22 0.796932 76.22 1.78C76.22 2.76307 77.0169 3.56 78 3.56Z" fill="white"/>
<path opacity="0.5" d="M93.31 3.56C94.2931 3.56 95.09 2.76307 95.09 1.78C95.09 0.796932 94.2931 0 93.31 0C92.327 0 91.53 0.796932 91.53 1.78C91.53 2.76307 92.327 3.56 93.31 3.56Z" fill="white"/>
<path opacity="0.5" d="M108.61 3.56C109.593 3.56 110.39 2.76307 110.39 1.78C110.39 0.796932 109.593 0 108.61 0C107.627 0 106.83 0.796932 106.83 1.78C106.83 2.76307 107.627 3.56 108.61 3.56Z" fill="white"/>
<path opacity="0.5" d="M123.92 3.56C124.903 3.56 125.7 2.76307 125.7 1.78C125.7 0.796932 124.903 0 123.92 0C122.937 0 122.14 0.796932 122.14 1.78C122.14 2.76307 122.937 3.56 123.92 3.56Z" fill="white"/>
<path opacity="0.5" d="M18.56 17.08C18.56 18.06 17.76 18.86 16.78 18.86C15.8 18.86 15 18.06 15 17.08C15 16.1 15.8 15.3 16.78 15.3C17.76 15.31 18.56 16.1 18.56 17.08Z" fill="white"/>
<path opacity="0.5" d="M32.0901 18.86C33.0731 18.86 33.8701 18.0631 33.8701 17.08C33.8701 16.0969 33.0731 15.3 32.0901 15.3C31.107 15.3 30.3101 16.0969 30.3101 17.08C30.3101 18.0631 31.107 18.86 32.0901 18.86Z" fill="white"/>
<path opacity="0.5" d="M47.3901 18.86C48.3732 18.86 49.1701 18.0631 49.1701 17.08C49.1701 16.0969 48.3732 15.3 47.3901 15.3C46.407 15.3 45.6101 16.0969 45.6101 17.08C45.6101 18.0631 46.407 18.86 47.3901 18.86Z" fill="white"/>
<path opacity="0.5" d="M64.4799 17.08C64.4799 18.06 63.6799 18.86 62.6999 18.86C61.7199 18.86 60.9199 18.06 60.9199 17.08C60.9199 16.1 61.7199 15.3 62.6999 15.3C63.6799 15.31 64.4799 16.1 64.4799 17.08Z" fill="white"/>
<path opacity="0.5" d="M78 18.86C78.983 18.86 79.78 18.0631 79.78 17.08C79.78 16.0969 78.983 15.3 78 15.3C77.0169 15.3 76.22 16.0969 76.22 17.08C76.22 18.0631 77.0169 18.86 78 18.86Z" fill="white"/>
<path opacity="0.5" d="M93.31 18.86C94.2931 18.86 95.09 18.0631 95.09 17.08C95.09 16.0969 94.2931 15.3 93.31 15.3C92.327 15.3 91.53 16.0969 91.53 17.08C91.53 18.0631 92.327 18.86 93.31 18.86Z" fill="white"/>
<path opacity="0.5" d="M108.61 18.86C109.593 18.86 110.39 18.0631 110.39 17.08C110.39 16.0969 109.593 15.3 108.61 15.3C107.627 15.3 106.83 16.0969 106.83 17.08C106.83 18.0631 107.627 18.86 108.61 18.86Z" fill="white"/>
<path opacity="0.5" d="M123.92 18.86C124.903 18.86 125.7 18.0631 125.7 17.08C125.7 16.0969 124.903 15.3 123.92 15.3C122.937 15.3 122.14 16.0969 122.14 17.08C122.14 18.0631 122.937 18.86 123.92 18.86Z" fill="white"/>
<path opacity="0.5" d="M18.56 32.39C18.56 33.37 17.76 34.17 16.78 34.17C15.8 34.17 15 33.37 15 32.39C15 31.41 15.8 30.61 16.78 30.61C17.76 30.61 18.56 31.41 18.56 32.39Z" fill="white"/>
<path opacity="0.5" d="M32.0901 34.17C33.0731 34.17 33.8701 33.3731 33.8701 32.39C33.8701 31.4069 33.0731 30.61 32.0901 30.61C31.107 30.61 30.3101 31.4069 30.3101 32.39C30.3101 33.3731 31.107 34.17 32.0901 34.17Z" fill="white"/>
<path opacity="0.5" d="M47.3901 34.17C48.3732 34.17 49.1701 33.3731 49.1701 32.39C49.1701 31.4069 48.3732 30.61 47.3901 30.61C46.407 30.61 45.6101 31.4069 45.6101 32.39C45.6101 33.3731 46.407 34.17 47.3901 34.17Z" fill="white"/>
<path opacity="0.5" d="M64.4799 32.39C64.4799 33.37 63.6799 34.17 62.6999 34.17C61.7199 34.17 60.9199 33.37 60.9199 32.39C60.9199 31.41 61.7199 30.61 62.6999 30.61C63.6799 30.61 64.4799 31.41 64.4799 32.39Z" fill="white"/>
<path opacity="0.5" d="M78 34.17C78.983 34.17 79.78 33.3731 79.78 32.39C79.78 31.4069 78.983 30.61 78 30.61C77.0169 30.61 76.22 31.4069 76.22 32.39C76.22 33.3731 77.0169 34.17 78 34.17Z" fill="white"/>
<path opacity="0.5" d="M93.31 34.17C94.2931 34.17 95.09 33.3731 95.09 32.39C95.09 31.4069 94.2931 30.61 93.31 30.61C92.327 30.61 91.53 31.4069 91.53 32.39C91.53 33.3731 92.327 34.17 93.31 34.17Z" fill="white"/>
<path opacity="0.5" d="M108.61 34.17C109.593 34.17 110.39 33.3731 110.39 32.39C110.39 31.4069 109.593 30.61 108.61 30.61C107.627 30.61 106.83 31.4069 106.83 32.39C106.83 33.3731 107.627 34.17 108.61 34.17Z" fill="white"/>
<path opacity="0.5" d="M123.92 34.17C124.903 34.17 125.7 33.3731 125.7 32.39C125.7 31.4069 124.903 30.61 123.92 30.61C122.937 30.61 122.14 31.4069 122.14 32.39C122.14 33.3731 122.937 34.17 123.92 34.17Z" fill="white"/>
<path opacity="0.5" d="M18.56 47.69C18.56 48.67 17.76 49.47 16.78 49.47C15.8 49.47 15 48.67 15 47.69C15 46.71 15.8 45.91 16.78 45.91C17.76 45.92 18.56 46.71 18.56 47.69Z" fill="white"/>
<path opacity="0.5" d="M32.0901 49.47C33.0731 49.47 33.8701 48.6731 33.8701 47.69C33.8701 46.7069 33.0731 45.91 32.0901 45.91C31.107 45.91 30.3101 46.7069 30.3101 47.69C30.3101 48.6731 31.107 49.47 32.0901 49.47Z" fill="white"/>
<path opacity="0.5" d="M47.3901 49.47C48.3732 49.47 49.1701 48.6731 49.1701 47.69C49.1701 46.7069 48.3732 45.91 47.3901 45.91C46.407 45.91 45.6101 46.7069 45.6101 47.69C45.6101 48.6731 46.407 49.47 47.3901 49.47Z" fill="white"/>
<path opacity="0.5" d="M64.4799 47.69C64.4799 48.67 63.6799 49.47 62.6999 49.47C61.7199 49.47 60.9199 48.67 60.9199 47.69C60.9199 46.71 61.7199 45.91 62.6999 45.91C63.6799 45.92 64.4799 46.71 64.4799 47.69Z" fill="white"/>
<path opacity="0.5" d="M78 49.47C78.983 49.47 79.78 48.6731 79.78 47.69C79.78 46.7069 78.983 45.91 78 45.91C77.0169 45.91 76.22 46.7069 76.22 47.69C76.22 48.6731 77.0169 49.47 78 49.47Z" fill="white"/>
<path opacity="0.5" d="M93.31 49.47C94.2931 49.47 95.09 48.6731 95.09 47.69C95.09 46.7069 94.2931 45.91 93.31 45.91C92.327 45.91 91.53 46.7069 91.53 47.69C91.53 48.6731 92.327 49.47 93.31 49.47Z" fill="white"/>
<path opacity="0.5" d="M108.61 49.47C109.593 49.47 110.39 48.6731 110.39 47.69C110.39 46.7069 109.593 45.91 108.61 45.91C107.627 45.91 106.83 46.7069 106.83 47.69C106.83 48.6731 107.627 49.47 108.61 49.47Z" fill="white"/>
<path opacity="0.5" d="M123.92 49.47C124.903 49.47 125.7 48.6731 125.7 47.69C125.7 46.7069 124.903 45.91 123.92 45.91C122.937 45.91 122.14 46.7069 122.14 47.69C122.14 48.6731 122.937 49.47 123.92 49.47Z" fill="white"/>
<path opacity="0.5" d="M18.56 63C18.56 63.98 17.76 64.78 16.78 64.78C15.8 64.78 15 63.98 15 63C15 62.02 15.8 61.22 16.78 61.22C17.76 61.22 18.56 62.02 18.56 63Z" fill="white"/>
<path opacity="0.5" d="M32.0901 64.78C33.0731 64.78 33.8701 63.9831 33.8701 63C33.8701 62.0169 33.0731 61.22 32.0901 61.22C31.107 61.22 30.3101 62.0169 30.3101 63C30.3101 63.9831 31.107 64.78 32.0901 64.78Z" fill="white"/>
<path opacity="0.5" d="M47.3901 64.78C48.3732 64.78 49.1701 63.9831 49.1701 63C49.1701 62.0169 48.3732 61.22 47.3901 61.22C46.407 61.22 45.6101 62.0169 45.6101 63C45.6101 63.9831 46.407 64.78 47.3901 64.78Z" fill="white"/>
<path opacity="0.5" d="M64.4799 63C64.4799 63.98 63.6799 64.78 62.6999 64.78C61.7199 64.78 60.9199 63.98 60.9199 63C60.9199 62.02 61.7199 61.22 62.6999 61.22C63.6799 61.22 64.4799 62.02 64.4799 63Z" fill="white"/>
<path opacity="0.5" d="M78 64.78C78.983 64.78 79.78 63.9831 79.78 63C79.78 62.0169 78.983 61.22 78 61.22C77.0169 61.22 76.22 62.0169 76.22 63C76.22 63.9831 77.0169 64.78 78 64.78Z" fill="white"/>
<path opacity="0.5" d="M93.31 64.78C94.2931 64.78 95.09 63.9831 95.09 63C95.09 62.0169 94.2931 61.22 93.31 61.22C92.327 61.22 91.53 62.0169 91.53 63C91.53 63.9831 92.327 64.78 93.31 64.78Z" fill="white"/>
<path opacity="0.5" d="M108.61 64.78C109.593 64.78 110.39 63.9831 110.39 63C110.39 62.0169 109.593 61.22 108.61 61.22C107.627 61.22 106.83 62.0169 106.83 63C106.83 63.9831 107.627 64.78 108.61 64.78Z" fill="white"/>
<path opacity="0.5" d="M123.92 64.78C124.903 64.78 125.7 63.9831 125.7 63C125.7 62.0169 124.903 61.22 123.92 61.22C122.937 61.22 122.14 62.0169 122.14 63C122.14 63.9831 122.937 64.78 123.92 64.78Z" fill="white"/>
<path opacity="0.5" d="M18.56 78.31C18.56 79.29 17.76 80.09 16.78 80.09C15.8 80.09 15 79.29 15 78.31C15 77.33 15.8 76.53 16.78 76.53C17.76 76.53 18.56 77.32 18.56 78.31Z" fill="white"/>
<path opacity="0.5" d="M32.0901 80.09C33.0731 80.09 33.8701 79.2931 33.8701 78.31C33.8701 77.3269 33.0731 76.53 32.0901 76.53C31.107 76.53 30.3101 77.3269 30.3101 78.31C30.3101 79.2931 31.107 80.09 32.0901 80.09Z" fill="white"/>
<path opacity="0.5" d="M47.3901 80.09C48.3732 80.09 49.1701 79.2931 49.1701 78.31C49.1701 77.3269 48.3732 76.53 47.3901 76.53C46.407 76.53 45.6101 77.3269 45.6101 78.31C45.6101 79.2931 46.407 80.09 47.3901 80.09Z" fill="white"/>
<path opacity="0.5" d="M64.4799 78.31C64.4799 79.29 63.6799 80.09 62.6999 80.09C61.7199 80.09 60.9199 79.29 60.9199 78.31C60.9199 77.33 61.7199 76.53 62.6999 76.53C63.6799 76.53 64.4799 77.32 64.4799 78.31Z" fill="white"/>
<path opacity="0.5" d="M78 80.09C78.983 80.09 79.78 79.2931 79.78 78.31C79.78 77.3269 78.983 76.53 78 76.53C77.0169 76.53 76.22 77.3269 76.22 78.31C76.22 79.2931 77.0169 80.09 78 80.09Z" fill="white"/>
<path opacity="0.5" d="M93.31 80.09C94.2931 80.09 95.09 79.2931 95.09 78.31C95.09 77.3269 94.2931 76.53 93.31 76.53C92.327 76.53 91.53 77.3269 91.53 78.31C91.53 79.2931 92.327 80.09 93.31 80.09Z" fill="white"/>
<path opacity="0.5" d="M108.61 80.09C109.593 80.09 110.39 79.2931 110.39 78.31C110.39 77.3269 109.593 76.53 108.61 76.53C107.627 76.53 106.83 77.3269 106.83 78.31C106.83 79.2931 107.627 80.09 108.61 80.09Z" fill="white"/>
<path opacity="0.5" d="M123.92 80.09C124.903 80.09 125.7 79.2931 125.7 78.31C125.7 77.3269 124.903 76.53 123.92 76.53C122.937 76.53 122.14 77.3269 122.14 78.31C122.14 79.2931 122.937 80.09 123.92 80.09Z" fill="white"/>
</g>
<g opacity="0.5">
<path opacity="0.5" d="M626.45 269.64C627.433 269.64 628.23 268.843 628.23 267.86C628.23 266.877 627.433 266.08 626.45 266.08C625.467 266.08 624.67 266.877 624.67 267.86C624.67 268.843 625.467 269.64 626.45 269.64Z" fill="white"/>
<path opacity="0.5" d="M626.45 284.95C627.433 284.95 628.23 284.153 628.23 283.17C628.23 282.187 627.433 281.39 626.45 281.39C625.467 281.39 624.67 282.187 624.67 283.17C624.67 284.153 625.467 284.95 626.45 284.95Z" fill="white"/>
<path opacity="0.5" d="M626.45 300.25C627.433 300.25 628.23 299.453 628.23 298.47C628.23 297.487 627.433 296.69 626.45 296.69C625.467 296.69 624.67 297.487 624.67 298.47C624.67 299.453 625.467 300.25 626.45 300.25Z" fill="white"/>
<path opacity="0.5" d="M626.45 315.56C627.433 315.56 628.23 314.763 628.23 313.78C628.23 312.797 627.433 312 626.45 312C625.467 312 624.67 312.797 624.67 313.78C624.67 314.763 625.467 315.56 626.45 315.56Z" fill="white"/>
<path opacity="0.5" d="M626.45 330.86C627.433 330.86 628.23 330.063 628.23 329.08C628.23 328.097 627.433 327.3 626.45 327.3C625.467 327.3 624.67 328.097 624.67 329.08C624.67 330.063 625.467 330.86 626.45 330.86Z" fill="white"/>
<path opacity="0.5" d="M626.45 346.17C627.433 346.17 628.23 345.373 628.23 344.39C628.23 343.407 627.433 342.61 626.45 342.61C625.467 342.61 624.67 343.407 624.67 344.39C624.67 345.373 625.467 346.17 626.45 346.17Z" fill="white"/>
<path opacity="0.5" d="M626.45 361.47C627.433 361.47 628.23 360.673 628.23 359.69C628.23 358.707 627.433 357.91 626.45 357.91C625.467 357.91 624.67 358.707 624.67 359.69C624.67 360.673 625.467 361.47 626.45 361.47Z" fill="white"/>
<path opacity="0.5" d="M626.45 376.77C625.47 376.77 624.67 375.97 624.67 374.99C624.67 374.01 625.47 373.21 626.45 373.21C627.43 373.21 628.23 374.01 628.23 374.99C628.23 375.98 627.43 376.77 626.45 376.77Z" fill="white"/>
<path opacity="0.5" d="M611.15 269.64C610.17 269.64 609.37 268.84 609.37 267.86C609.37 266.88 610.17 266.08 611.15 266.08C612.13 266.08 612.93 266.88 612.93 267.86C612.92 268.84 612.13 269.64 611.15 269.64Z" fill="white"/>
<path opacity="0.5" d="M611.15 284.94C610.17 284.94 609.37 284.14 609.37 283.16C609.37 282.18 610.17 281.38 611.15 281.38C612.13 281.38 612.93 282.18 612.93 283.16C612.92 284.15 612.13 284.94 611.15 284.94Z" fill="white"/>
<path opacity="0.5" d="M611.15 300.25C610.17 300.25 609.37 299.45 609.37 298.47C609.37 297.49 610.17 296.69 611.15 296.69C612.13 296.69 612.93 297.49 612.93 298.47C612.92 299.45 612.13 300.25 611.15 300.25Z" fill="white"/>
<path opacity="0.5" d="M611.15 315.55C610.17 315.55 609.37 314.75 609.37 313.77C609.37 312.79 610.17 311.99 611.15 311.99C612.13 311.99 612.93 312.79 612.93 313.77C612.92 314.76 612.13 315.55 611.15 315.55Z" fill="white"/>
<path opacity="0.5" d="M611.15 330.86C610.17 330.86 609.37 330.06 609.37 329.08C609.37 328.1 610.17 327.3 611.15 327.3C612.13 327.3 612.93 328.1 612.93 329.08C612.92 330.06 612.13 330.86 611.15 330.86Z" fill="white"/>
<path opacity="0.5" d="M611.15 346.16C610.17 346.16 609.37 345.36 609.37 344.38C609.37 343.4 610.17 342.6 611.15 342.6C612.13 342.6 612.93 343.4 612.93 344.38C612.93 345.36 612.13 346.16 611.15 346.16Z" fill="white"/>
<path opacity="0.5" d="M611.15 361.47C610.17 361.47 609.37 360.67 609.37 359.69C609.37 358.71 610.17 357.91 611.15 357.91C612.13 357.91 612.93 358.71 612.93 359.69C612.93 360.67 612.13 361.47 611.15 361.47Z" fill="white"/>
<path opacity="0.5" d="M611.15 376.77C610.17 376.77 609.37 375.97 609.37 374.99C609.37 374.01 610.17 373.21 611.15 373.21C612.13 373.21 612.93 374.01 612.93 374.99C612.92 375.98 612.13 376.77 611.15 376.77Z" fill="white"/>
<path opacity="0.5" d="M595.84 269.64C596.823 269.64 597.62 268.843 597.62 267.86C597.62 266.877 596.823 266.08 595.84 266.08C594.857 266.08 594.06 266.877 594.06 267.86C594.06 268.843 594.857 269.64 595.84 269.64Z" fill="white"/>
<path opacity="0.5" d="M595.84 284.95C596.823 284.95 597.62 284.153 597.62 283.17C597.62 282.187 596.823 281.39 595.84 281.39C594.857 281.39 594.06 282.187 594.06 283.17C594.06 284.153 594.857 284.95 595.84 284.95Z" fill="white"/>
<path opacity="0.5" d="M595.84 300.25C596.823 300.25 597.62 299.453 597.62 298.47C597.62 297.487 596.823 296.69 595.84 296.69C594.857 296.69 594.06 297.487 594.06 298.47C594.06 299.453 594.857 300.25 595.84 300.25Z" fill="white"/>
<path opacity="0.5" d="M595.84 315.56C596.823 315.56 597.62 314.763 597.62 313.78C597.62 312.797 596.823 312 595.84 312C594.857 312 594.06 312.797 594.06 313.78C594.06 314.763 594.857 315.56 595.84 315.56Z" fill="white"/>
<path opacity="0.5" d="M595.84 330.86C596.823 330.86 597.62 330.063 597.62 329.08C597.62 328.097 596.823 327.3 595.84 327.3C594.857 327.3 594.06 328.097 594.06 329.08C594.06 330.063 594.857 330.86 595.84 330.86Z" fill="white"/>
<path opacity="0.5" d="M595.84 346.17C596.823 346.17 597.62 345.373 597.62 344.39C597.62 343.407 596.823 342.61 595.84 342.61C594.857 342.61 594.06 343.407 594.06 344.39C594.06 345.373 594.857 346.17 595.84 346.17Z" fill="white"/>
<path opacity="0.5" d="M595.84 361.47C596.823 361.47 597.62 360.673 597.62 359.69C597.62 358.707 596.823 357.91 595.84 357.91C594.857 357.91 594.06 358.707 594.06 359.69C594.06 360.673 594.857 361.47 595.84 361.47Z" fill="white"/>
<path opacity="0.5" d="M595.84 376.77C594.86 376.77 594.06 375.97 594.06 374.99C594.06 374.01 594.86 373.21 595.84 373.21C596.82 373.21 597.62 374.01 597.62 374.99C597.62 375.98 596.82 376.77 595.84 376.77Z" fill="white"/>
<path opacity="0.5" d="M580.53 269.64C581.513 269.64 582.31 268.843 582.31 267.86C582.31 266.877 581.513 266.08 580.53 266.08C579.547 266.08 578.75 266.877 578.75 267.86C578.75 268.843 579.547 269.64 580.53 269.64Z" fill="white"/>
<path opacity="0.5" d="M580.53 284.95C581.513 284.95 582.31 284.153 582.31 283.17C582.31 282.187 581.513 281.39 580.53 281.39C579.547 281.39 578.75 282.187 578.75 283.17C578.75 284.153 579.547 284.95 580.53 284.95Z" fill="white"/>
<path opacity="0.5" d="M580.53 300.25C581.513 300.25 582.31 299.453 582.31 298.47C582.31 297.487 581.513 296.69 580.53 296.69C579.547 296.69 578.75 297.487 578.75 298.47C578.75 299.453 579.547 300.25 580.53 300.25Z" fill="white"/>
<path opacity="0.5" d="M580.53 315.56C581.513 315.56 582.31 314.763 582.31 313.78C582.31 312.797 581.513 312 580.53 312C579.547 312 578.75 312.797 578.75 313.78C578.75 314.763 579.547 315.56 580.53 315.56Z" fill="white"/>
<path opacity="0.5" d="M580.53 330.86C581.513 330.86 582.31 330.063 582.31 329.08C582.31 328.097 581.513 327.3 580.53 327.3C579.547 327.3 578.75 328.097 578.75 329.08C578.75 330.063 579.547 330.86 580.53 330.86Z" fill="white"/>
<path opacity="0.5" d="M580.53 346.17C581.513 346.17 582.31 345.373 582.31 344.39C582.31 343.407 581.513 342.61 580.53 342.61C579.547 342.61 578.75 343.407 578.75 344.39C578.75 345.373 579.547 346.17 580.53 346.17Z" fill="white"/>
<path opacity="0.5" d="M580.53 361.47C581.513 361.47 582.31 360.673 582.31 359.69C582.31 358.707 581.513 357.91 580.53 357.91C579.547 357.91 578.75 358.707 578.75 359.69C578.75 360.673 579.547 361.47 580.53 361.47Z" fill="white"/>
<path opacity="0.5" d="M580.53 376.77C579.55 376.77 578.75 375.97 578.75 374.99C578.75 374.01 579.55 373.21 580.53 373.21C581.51 373.21 582.31 374.01 582.31 374.99C582.31 375.98 581.52 376.77 580.53 376.77Z" fill="white"/>
<path opacity="0.5" d="M565.23 269.64C566.213 269.64 567.01 268.843 567.01 267.86C567.01 266.877 566.213 266.08 565.23 266.08C564.247 266.08 563.45 266.877 563.45 267.86C563.45 268.843 564.247 269.64 565.23 269.64Z" fill="white"/>
<path opacity="0.5" d="M565.23 284.95C566.213 284.95 567.01 284.153 567.01 283.17C567.01 282.187 566.213 281.39 565.23 281.39C564.247 281.39 563.45 282.187 563.45 283.17C563.45 284.153 564.247 284.95 565.23 284.95Z" fill="white"/>
<path opacity="0.5" d="M565.23 300.25C566.213 300.25 567.01 299.453 567.01 298.47C567.01 297.487 566.213 296.69 565.23 296.69C564.247 296.69 563.45 297.487 563.45 298.47C563.45 299.453 564.247 300.25 565.23 300.25Z" fill="white"/>
<path opacity="0.5" d="M565.23 315.56C566.213 315.56 567.01 314.763 567.01 313.78C567.01 312.797 566.213 312 565.23 312C564.247 312 563.45 312.797 563.45 313.78C563.45 314.763 564.247 315.56 565.23 315.56Z" fill="white"/>
<path opacity="0.5" d="M565.23 330.86C566.213 330.86 567.01 330.063 567.01 329.08C567.01 328.097 566.213 327.3 565.23 327.3C564.247 327.3 563.45 328.097 563.45 329.08C563.45 330.063 564.247 330.86 565.23 330.86Z" fill="white"/>
<path opacity="0.5" d="M565.23 346.17C566.213 346.17 567.01 345.373 567.01 344.39C567.01 343.407 566.213 342.61 565.23 342.61C564.247 342.61 563.45 343.407 563.45 344.39C563.45 345.373 564.247 346.17 565.23 346.17Z" fill="white"/>
<path opacity="0.5" d="M565.23 361.47C566.213 361.47 567.01 360.673 567.01 359.69C567.01 358.707 566.213 357.91 565.23 357.91C564.247 357.91 563.45 358.707 563.45 359.69C563.45 360.673 564.247 361.47 565.23 361.47Z" fill="white"/>
<path opacity="0.5" d="M565.23 376.77C564.25 376.77 563.45 375.97 563.45 374.99C563.45 374.01 564.25 373.21 565.23 373.21C566.21 373.21 567.01 374.01 567.01 374.99C567.01 375.98 566.21 376.77 565.23 376.77Z" fill="white"/>
<path opacity="0.5" d="M549.92 269.64C550.903 269.64 551.7 268.843 551.7 267.86C551.7 266.877 550.903 266.08 549.92 266.08C548.937 266.08 548.14 266.877 548.14 267.86C548.14 268.843 548.937 269.64 549.92 269.64Z" fill="white"/>
<path opacity="0.5" d="M549.92 284.95C550.903 284.95 551.7 284.153 551.7 283.17C551.7 282.187 550.903 281.39 549.92 281.39C548.937 281.39 548.14 282.187 548.14 283.17C548.14 284.153 548.937 284.95 549.92 284.95Z" fill="white"/>
<path opacity="0.5" d="M549.92 300.25C550.903 300.25 551.7 299.453 551.7 298.47C551.7 297.487 550.903 296.69 549.92 296.69C548.937 296.69 548.14 297.487 548.14 298.47C548.14 299.453 548.937 300.25 549.92 300.25Z" fill="white"/>
<path opacity="0.5" d="M549.92 315.56C550.903 315.56 551.7 314.763 551.7 313.78C551.7 312.797 550.903 312 549.92 312C548.937 312 548.14 312.797 548.14 313.78C548.14 314.763 548.937 315.56 549.92 315.56Z" fill="white"/>
<path opacity="0.5" d="M549.92 330.86C550.903 330.86 551.7 330.063 551.7 329.08C551.7 328.097 550.903 327.3 549.92 327.3C548.937 327.3 548.14 328.097 548.14 329.08C548.14 330.063 548.937 330.86 549.92 330.86Z" fill="white"/>
<path opacity="0.5" d="M549.92 346.17C550.903 346.17 551.7 345.373 551.7 344.39C551.7 343.407 550.903 342.61 549.92 342.61C548.937 342.61 548.14 343.407 548.14 344.39C548.14 345.373 548.937 346.17 549.92 346.17Z" fill="white"/>
<path opacity="0.5" d="M549.92 361.47C550.903 361.47 551.7 360.673 551.7 359.69C551.7 358.707 550.903 357.91 549.92 357.91C548.937 357.91 548.14 358.707 548.14 359.69C548.14 360.673 548.937 361.47 549.92 361.47Z" fill="white"/>
<path opacity="0.5" d="M549.92 376.77C548.94 376.77 548.14 375.97 548.14 374.99C548.14 374.01 548.94 373.21 549.92 373.21C550.9 373.21 551.7 374.01 551.7 374.99C551.7 375.98 550.9 376.77 549.92 376.77Z" fill="white"/>
</g>
<g opacity="0.5">
<path opacity="0.5" d="M431.06 38.7C431.06 39.68 430.26 40.48 429.28 40.48C428.3 40.48 427.5 39.68 427.5 38.7C427.5 37.72 428.3 36.92 429.28 36.92C430.26 36.92 431.06 37.72 431.06 38.7Z" fill="white"/>
<path opacity="0.5" d="M446.37 38.7C446.37 39.68 445.57 40.48 444.59 40.48C443.61 40.48 442.81 39.68 442.81 38.7C442.81 37.72 443.61 36.92 444.59 36.92C445.57 36.93 446.37 37.72 446.37 38.7Z" fill="white"/>
<path opacity="0.5" d="M461.67 38.7C461.67 39.68 460.87 40.48 459.89 40.48C458.91 40.48 458.11 39.68 458.11 38.7C458.11 37.72 458.91 36.92 459.89 36.92C460.87 36.92 461.67 37.72 461.67 38.7Z" fill="white"/>
<path opacity="0.5" d="M431.06 54.01C431.06 54.99 430.26 55.79 429.28 55.79C428.3 55.79 427.5 54.99 427.5 54.01C427.5 53.03 428.3 52.23 429.28 52.23C430.26 52.23 431.06 53.03 431.06 54.01Z" fill="white"/>
<path opacity="0.5" d="M446.37 54.01C446.37 54.99 445.57 55.79 444.59 55.79C443.61 55.79 442.81 54.99 442.81 54.01C442.81 53.03 443.61 52.23 444.59 52.23C445.57 52.23 446.37 53.03 446.37 54.01Z" fill="white"/>
<path opacity="0.5" d="M461.67 54.01C461.67 54.99 460.87 55.79 459.89 55.79C458.91 55.79 458.11 54.99 458.11 54.01C458.11 53.03 458.91 52.23 459.89 52.23C460.87 52.23 461.67 53.03 461.67 54.01Z" fill="white"/>
<path opacity="0.5" d="M431.06 69.31C431.06 70.29 430.26 71.09 429.28 71.09C428.3 71.09 427.5 70.29 427.5 69.31C427.5 68.33 428.3 67.53 429.28 67.53C430.26 67.53 431.06 68.33 431.06 69.31Z" fill="white"/>
<path opacity="0.5" d="M446.37 69.31C446.37 70.29 445.57 71.09 444.59 71.09C443.61 71.09 442.81 70.29 442.81 69.31C442.81 68.33 443.61 67.53 444.59 67.53C445.57 67.54 446.37 68.33 446.37 69.31Z" fill="white"/>
<path opacity="0.5" d="M461.67 69.31C461.67 70.29 460.87 71.09 459.89 71.09C458.91 71.09 458.11 70.29 458.11 69.31C458.11 68.33 458.91 67.53 459.89 67.53C460.87 67.53 461.67 68.33 461.67 69.31Z" fill="white"/>
</g>
<g opacity="0.5">
<path opacity="0.5" d="M288.16 174.69C288.16 175.67 287.36 176.47 286.38 176.47C285.4 176.47 284.6 175.67 284.6 174.69C284.6 173.71 285.4 172.91 286.38 172.91C287.37 172.91 288.16 173.7 288.16 174.69Z" fill="white"/>
<path opacity="0.5" d="M301.69 176.47C302.673 176.47 303.47 175.673 303.47 174.69C303.47 173.707 302.673 172.91 301.69 172.91C300.707 172.91 299.91 173.707 299.91 174.69C299.91 175.673 300.707 176.47 301.69 176.47Z" fill="white"/>
<path opacity="0.5" d="M316.99 176.47C317.973 176.47 318.77 175.673 318.77 174.69C318.77 173.707 317.973 172.91 316.99 172.91C316.007 172.91 315.21 173.707 315.21 174.69C315.21 175.673 316.007 176.47 316.99 176.47Z" fill="white"/>
<path opacity="0.5" d="M288.16 189.99C288.16 190.97 287.36 191.77 286.38 191.77C285.4 191.77 284.6 190.97 284.6 189.99C284.6 189.01 285.4 188.21 286.38 188.21C287.37 188.21 288.16 189.01 288.16 189.99Z" fill="white"/>
<path opacity="0.5" d="M301.69 191.77C302.673 191.77 303.47 190.973 303.47 189.99C303.47 189.007 302.673 188.21 301.69 188.21C300.707 188.21 299.91 189.007 299.91 189.99C299.91 190.973 300.707 191.77 301.69 191.77Z" fill="white"/>
<path opacity="0.5" d="M316.99 191.77C317.973 191.77 318.77 190.973 318.77 189.99C318.77 189.007 317.973 188.21 316.99 188.21C316.007 188.21 315.21 189.007 315.21 189.99C315.21 190.973 316.007 191.77 316.99 191.77Z" fill="white"/>
<path opacity="0.5" d="M288.16 205.3C288.16 206.28 287.36 207.08 286.38 207.08C285.4 207.08 284.6 206.28 284.6 205.3C284.6 204.32 285.4 203.52 286.38 203.52C287.37 203.52 288.16 204.32 288.16 205.3Z" fill="white"/>
<path opacity="0.5" d="M303.47 205.3C303.47 206.28 302.67 207.08 301.69 207.08C300.71 207.08 299.91 206.28 299.91 205.3C299.91 204.32 300.71 203.52 301.69 203.52C302.67 203.52 303.47 204.32 303.47 205.3Z" fill="white"/>
<path opacity="0.5" d="M318.77 205.3C318.77 206.28 317.97 207.08 316.99 207.08C316.01 207.08 315.21 206.28 315.21 205.3C315.21 204.32 316.01 203.52 316.99 203.52C317.98 203.52 318.77 204.32 318.77 205.3Z" fill="white"/>
</g>
<g opacity="0.5">
<path opacity="0.5" d="M542.74 -53.21L478.26 11.27" stroke="white" stroke-width="2.1221" stroke-miterlimit="10"/>
<path opacity="0.5" d="M538.55 -57.4L474.07 7.08002" stroke="white" stroke-width="2.1221" stroke-miterlimit="10"/>
<path opacity="0.5" d="M534.36 -61.59L469.88 2.89001" stroke="white" stroke-width="2.1221" stroke-miterlimit="10"/>
</g>
<g opacity="0.5">
<path opacity="0.5" d="M416.26 468.75L351.79 533.23" stroke="white" stroke-width="2.1221" stroke-miterlimit="10"/>
<path opacity="0.5" d="M412.08 464.56L347.6 529.04" stroke="white" stroke-width="2.1221" stroke-miterlimit="10"/>
<path opacity="0.5" d="M407.89 460.38L343.41 524.85" stroke="white" stroke-width="2.1221" stroke-miterlimit="10"/>
<path opacity="0.5" d="M403.7 456.19L339.22 520.67" stroke="white" stroke-width="2.1221" stroke-miterlimit="10"/>
<path opacity="0.5" d="M399.51 452L335.03 516.48" stroke="white" stroke-width="2.1221" stroke-miterlimit="10"/>
<path opacity="0.5" d="M395.32 447.81L330.84 512.29" stroke="white" stroke-width="2.1221" stroke-miterlimit="10"/>
<path opacity="0.5" d="M391.13 443.62L326.65 508.1" stroke="white" stroke-width="2.1221" stroke-miterlimit="10"/>
<path opacity="0.5" d="M386.94 439.43L322.46 503.91" stroke="white" stroke-width="2.1221" stroke-miterlimit="10"/>
<path opacity="0.5" d="M382.75 435.24L318.27 499.72" stroke="white" stroke-width="2.1221" stroke-miterlimit="10"/>
<path opacity="0.5" d="M378.56 431.05L314.08 495.53" stroke="white" stroke-width="2.1221" stroke-miterlimit="10"/>
<path opacity="0.5" d="M374.37 426.86L309.89 491.34" stroke="white" stroke-width="2.1221" stroke-miterlimit="10"/>
<path opacity="0.5" d="M370.18 422.67L305.7 487.15" stroke="white" stroke-width="2.1221" stroke-miterlimit="10"/>
<path opacity="0.5" d="M365.99 418.48L301.51 482.96" stroke="white" stroke-width="2.1221" stroke-miterlimit="10"/>
<path opacity="0.5" d="M361.8 414.29L297.32 478.77" stroke="white" stroke-width="2.1221" stroke-miterlimit="10"/>
<path opacity="0.5" d="M357.61 410.1L293.13 474.58" stroke="white" stroke-width="2.1221" stroke-miterlimit="10"/>
<path opacity="0.5" d="M353.42 405.91L288.94 470.39" stroke="white" stroke-width="2.1221" stroke-miterlimit="10"/>
<path opacity="0.5" d="M349.23 401.72L284.75 466.2" stroke="white" stroke-width="2.1221" stroke-miterlimit="10"/>
<path opacity="0.5" d="M345.04 397.53L280.57 462.01" stroke="white" stroke-width="2.1221" stroke-miterlimit="10"/>
<path opacity="0.5" d="M340.86 393.35L276.38 457.82" stroke="white" stroke-width="2.1221" stroke-miterlimit="10"/>
<path opacity="0.5" d="M336.67 389.16L272.19 453.63" stroke="white" stroke-width="2.1221" stroke-miterlimit="10"/>
<path opacity="0.5" d="M332.48 384.97L268 449.45" stroke="white" stroke-width="2.1221" stroke-miterlimit="10"/>
</g>
<g opacity="0.8">
<path opacity="0.8" d="M381.018 77.0185C436.066 21.9707 436.066 -67.2794 381.018 -122.327C325.971 -177.375 236.721 -177.375 181.673 -122.327C126.625 -67.2794 126.625 21.9707 181.673 77.0184C236.721 132.066 325.971 132.066 381.018 77.0185Z" stroke="white" stroke-width="0.5" stroke-miterlimit="10"/>
<path opacity="0.8" d="M375.998 71.998C428.273 19.723 428.273 -65.0317 375.998 -117.307C323.723 -169.582 238.968 -169.582 186.693 -117.307C134.418 -65.0317 134.418 19.723 186.693 71.998C238.968 124.273 323.723 124.273 375.998 71.998Z" stroke="white" stroke-width="0.6562" stroke-miterlimit="10"/>
<path opacity="0.8" d="M281.347 104.094C351.349 104.094 408.097 47.3458 408.097 -22.6563C408.097 -92.6584 351.349 -149.406 281.347 -149.406C211.345 -149.406 154.597 -92.6584 154.597 -22.6563C154.597 47.3458 211.345 104.094 281.347 104.094Z" stroke="white" stroke-width="0.8125" stroke-miterlimit="10"/>
<path opacity="0.8" d="M281.347 96.9937C347.428 96.9937 400.997 43.4246 400.997 -22.6563C400.997 -88.7372 347.428 -142.306 281.347 -142.306C215.266 -142.306 161.697 -88.7372 161.697 -22.6563C161.697 43.4246 215.266 96.9937 281.347 96.9937Z" stroke="white" stroke-width="0.9688" stroke-miterlimit="10"/>
<path opacity="0.8" d="M360.93 56.9297C404.883 12.9766 404.883 -58.2854 360.93 -102.238C316.977 -146.192 245.715 -146.192 201.762 -102.238C157.808 -58.2854 157.809 12.9766 201.762 56.9297C245.715 100.883 316.977 100.883 360.93 56.9297Z" stroke="white" stroke-width="1.125" stroke-miterlimit="10"/>
<path opacity="0.8" d="M355.909 51.9093C397.09 10.7289 397.09 -56.0377 355.909 -97.2181C314.729 -138.398 247.962 -138.398 206.782 -97.2181C165.602 -56.0377 165.602 10.7289 206.782 51.9093C247.962 93.0897 314.729 93.0897 355.909 51.9093Z" stroke="white" stroke-width="1.2812" stroke-miterlimit="10"/>
<path opacity="0.8" d="M350.889 46.8889C389.297 8.48123 389.297 -53.79 350.889 -92.1977C312.481 -130.605 250.21 -130.605 211.802 -92.1976C173.395 -53.7899 173.395 8.48122 211.802 46.8889C250.21 85.2966 312.481 85.2966 350.889 46.8889Z" stroke="white" stroke-width="1.4375" stroke-miterlimit="10"/>
<path opacity="0.8" d="M345.868 41.8685C381.503 6.23352 381.503 -51.5422 345.868 -87.1772C310.233 -122.812 252.458 -122.812 216.823 -87.1772C181.188 -51.5422 181.188 6.23352 216.823 41.8685C252.458 77.5035 310.233 77.5035 345.868 41.8685Z" stroke="white" stroke-width="1.5938" stroke-miterlimit="10"/>
<path opacity="0.8" d="M364.438 -9.22994C371.842 -55.1098 340.65 -98.3045 294.771 -105.708C248.891 -113.111 205.696 -81.92 198.293 -36.0401C190.889 9.83976 222.08 53.0344 267.96 60.4378C313.84 67.8413 357.035 36.6499 364.438 -9.22994Z" stroke="white" stroke-width="1.75" stroke-miterlimit="10"/>
<path opacity="0.8" d="M281.347 54.3937C323.901 54.3937 358.397 19.8972 358.397 -22.6563C358.397 -65.2099 323.901 -99.7063 281.347 -99.7063C238.794 -99.7063 204.297 -65.2099 204.297 -22.6563C204.297 19.8972 238.794 54.3937 281.347 54.3937Z" stroke="white" stroke-width="1.9062" stroke-miterlimit="10"/>
<path opacity="0.8" d="M330.807 26.8073C358.124 -0.509631 358.124 -44.7991 330.807 -72.116C303.49 -99.4329 259.201 -99.4329 231.884 -72.116C204.567 -44.7991 204.567 -0.509637 231.884 26.8073C259.201 54.1242 303.49 54.1242 330.807 26.8073Z" stroke="white" stroke-width="2.0625" stroke-miterlimit="10"/>
<path opacity="0.8" d="M325.78 21.7798C350.32 -2.7605 350.32 -42.5482 325.78 -67.0885C301.239 -91.6288 261.452 -91.6288 236.911 -67.0885C212.371 -42.5482 212.371 -2.7605 236.911 21.7798C261.452 46.3201 301.239 46.3201 325.78 21.7798Z" stroke="white" stroke-width="2.2188" stroke-miterlimit="10"/>
<path opacity="0.8" d="M320.759 16.7594C342.527 -5.00823 342.527 -40.3005 320.759 -62.0681C298.992 -83.8357 263.699 -83.8357 241.932 -62.0681C220.164 -40.3005 220.164 -5.00823 241.932 16.7594C263.699 38.527 298.992 38.527 320.759 16.7594Z" stroke="white" stroke-width="2.375" stroke-miterlimit="10"/>
<path opacity="0.8" d="M315.739 11.739C334.734 -7.25593 334.734 -38.0528 315.739 -57.0477C296.744 -76.0426 265.947 -76.0426 246.952 -57.0477C227.957 -38.0528 227.958 -7.25594 246.952 11.739C265.947 30.7339 296.744 30.7339 315.739 11.739Z" stroke="white" stroke-width="2.5312" stroke-miterlimit="10"/>
<path opacity="0.8" d="M322.587 -17.7929C325.276 -40.5765 308.986 -61.226 286.203 -63.9148C263.419 -66.6036 242.769 -50.3135 240.081 -27.5298C237.392 -4.74623 253.682 15.9032 276.466 18.592C299.249 21.2808 319.899 4.99074 322.587 -17.7929Z" stroke="white" stroke-width="2.6875" stroke-miterlimit="10"/>
<path opacity="0.8" d="M281.347 11.7837C300.368 11.7837 315.787 -3.63563 315.787 -22.6563C315.787 -41.677 300.368 -57.0963 281.347 -57.0963C262.326 -57.0963 246.907 -41.677 246.907 -22.6563C246.907 -3.63563 262.326 11.7837 281.347 11.7837Z" stroke="white" stroke-width="2.8438" stroke-miterlimit="10"/>
<path opacity="0.8" d="M308.621 -20.4582C309.82 -35.5093 298.59 -48.6826 283.539 -49.8815C268.488 -51.0804 255.315 -39.8509 254.116 -24.7998C252.917 -9.74863 264.146 3.42463 279.198 4.62352C294.249 5.82242 307.422 -5.40704 308.621 -20.4582Z" stroke="white" stroke-width="3" stroke-miterlimit="10"/>
</g>
<g opacity="0.79">
<path opacity="0.79" d="M503.209 296.891C539.227 260.873 539.227 202.477 503.209 166.459C467.191 130.441 408.795 130.441 372.777 166.459C336.76 202.477 336.76 260.873 372.777 296.891C408.795 332.909 467.191 332.908 503.209 296.891Z" stroke="white" stroke-width="0.5" stroke-miterlimit="10"/>
<path opacity="0.79" d="M498.613 292.295C532.092 258.815 532.092 204.535 498.613 171.055C465.134 137.576 410.853 137.576 377.374 171.055C343.894 204.535 343.894 258.815 377.374 292.295C410.853 325.774 465.134 325.774 498.613 292.295Z" stroke="white" stroke-width="0.7273" stroke-miterlimit="10"/>
<path opacity="0.79" d="M437.997 310.904C481.755 310.904 517.227 275.431 517.227 231.674C517.227 187.916 481.755 152.444 437.997 152.444C394.24 152.444 358.767 187.916 358.767 231.674C358.767 275.431 394.24 310.904 437.997 310.904Z" stroke="white" stroke-width="0.9545" stroke-miterlimit="10"/>
<path opacity="0.79" d="M437.997 304.414C478.17 304.414 510.737 271.847 510.737 231.674C510.737 191.5 478.17 158.934 437.997 158.934C397.824 158.934 365.257 191.5 365.257 231.674C365.257 271.847 397.824 304.414 437.997 304.414Z" stroke="white" stroke-width="1.1818" stroke-miterlimit="10"/>
<path opacity="0.79" d="M437.997 297.914C474.58 297.914 504.237 268.257 504.237 231.674C504.237 195.09 474.58 165.434 437.997 165.434C401.414 165.434 371.757 195.09 371.757 231.674C371.757 268.257 401.414 297.914 437.997 297.914Z" stroke="white" stroke-width="1.4091" stroke-miterlimit="10"/>
<path opacity="0.79" d="M437.997 291.414C470.991 291.414 497.737 264.667 497.737 231.674C497.737 198.68 470.991 171.934 437.997 171.934C405.004 171.934 378.257 198.68 378.257 231.674C378.257 264.667 405.004 291.414 437.997 291.414Z" stroke="white" stroke-width="1.6364" stroke-miterlimit="10"/>
<path opacity="0.79" d="M437.997 284.914C467.401 284.914 491.237 261.077 491.237 231.674C491.237 202.27 467.401 178.434 437.997 178.434C408.593 178.434 384.757 202.27 384.757 231.674C384.757 261.077 408.593 284.914 437.997 284.914Z" stroke="white" stroke-width="1.8636" stroke-miterlimit="10"/>
<path opacity="0.79" d="M437.997 278.414C463.811 278.414 484.737 257.487 484.737 231.674C484.737 205.86 463.811 184.934 437.997 184.934C412.183 184.934 391.257 205.86 391.257 231.674C391.257 257.487 412.183 278.414 437.997 278.414Z" stroke="white" stroke-width="2.0909" stroke-miterlimit="10"/>
<path opacity="0.79" d="M437.997 271.914C460.221 271.914 478.237 253.898 478.237 231.674C478.237 209.45 460.221 191.434 437.997 191.434C415.773 191.434 397.757 209.45 397.757 231.674C397.757 253.898 415.773 271.914 437.997 271.914Z" stroke="white" stroke-width="2.3182" stroke-miterlimit="10"/>
<path opacity="0.79" d="M437.997 265.414C456.631 265.414 471.737 250.308 471.737 231.674C471.737 213.04 456.631 197.934 437.997 197.934C419.363 197.934 404.257 213.04 404.257 231.674C404.257 250.308 419.363 265.414 437.997 265.414Z" stroke="white" stroke-width="2.5454" stroke-miterlimit="10"/>
<path opacity="0.79" d="M437.997 258.914C453.041 258.914 465.237 246.718 465.237 231.674C465.237 216.629 453.041 204.434 437.997 204.434C422.953 204.434 410.757 216.629 410.757 231.674C410.757 246.718 422.953 258.914 437.997 258.914Z" stroke="white" stroke-width="2.7727" stroke-miterlimit="10"/>
<path opacity="0.79" d="M437.997 252.414C449.451 252.414 458.737 243.128 458.737 231.674C458.737 220.219 449.451 210.934 437.997 210.934C426.543 210.934 417.257 220.219 417.257 231.674C417.257 243.128 426.543 252.414 437.997 252.414Z" stroke="white" stroke-width="3" stroke-miterlimit="10"/>
</g>
<g opacity="0.89">
<g opacity="0.89">
<path opacity="0.89" d="M168.837 271.744C213.517 271.744 249.737 235.523 249.737 190.844C249.737 146.164 213.517 109.944 168.837 109.944C124.157 109.944 87.937 146.164 87.937 190.844C87.937 235.523 124.157 271.744 168.837 271.744Z" stroke="white" stroke-width="0.8127" stroke-linecap="round" stroke-linejoin="round"/>
</g>
<g opacity="0.89">
<path opacity="0.89" d="M168.837 265.844C210.258 265.844 243.837 232.265 243.837 190.844C243.837 149.422 210.258 115.844 168.837 115.844C127.416 115.844 93.8369 149.422 93.8369 190.844C93.8369 232.265 127.416 265.844 168.837 265.844Z" stroke="white" stroke-width="0.9493" stroke-linecap="round" stroke-linejoin="round"/>
</g>
<g opacity="0.89">
<path opacity="0.89" d="M168.837 259.944C207 259.944 237.937 229.007 237.937 190.844C237.937 152.681 207 121.744 168.837 121.744C130.674 121.744 99.7371 152.681 99.7371 190.844C99.7371 229.007 130.674 259.944 168.837 259.944Z" stroke="white" stroke-width="1.0859" stroke-linecap="round" stroke-linejoin="round"/>
</g>
<g opacity="0.89">
<path opacity="0.89" d="M168.837 254.044C203.741 254.044 232.037 225.748 232.037 190.844C232.037 155.939 203.741 127.644 168.837 127.644C133.933 127.644 105.637 155.939 105.637 190.844C105.637 225.748 133.933 254.044 168.837 254.044Z" stroke="white" stroke-width="1.2225" stroke-linecap="round" stroke-linejoin="round"/>
</g>
<g opacity="0.89">
<path opacity="0.89" d="M168.837 248.144C200.483 248.144 226.137 222.49 226.137 190.844C226.137 159.198 200.483 133.544 168.837 133.544C137.191 133.544 111.537 159.198 111.537 190.844C111.537 222.49 137.191 248.144 168.837 248.144Z" stroke="white" stroke-width="1.3591" stroke-linecap="round" stroke-linejoin="round"/>
</g>
<g opacity="0.89">
<path opacity="0.89" d="M168.837 242.244C197.224 242.244 220.237 219.231 220.237 190.844C220.237 162.456 197.224 139.444 168.837 139.444C140.45 139.444 117.437 162.456 117.437 190.844C117.437 219.231 140.45 242.244 168.837 242.244Z" stroke="white" stroke-width="1.4956" stroke-linecap="round" stroke-linejoin="round"/>
</g>
<g opacity="0.89">
<path opacity="0.89" d="M168.837 236.344C193.966 236.344 214.337 215.973 214.337 190.844C214.337 165.715 193.966 145.344 168.837 145.344C143.708 145.344 123.337 165.715 123.337 190.844C123.337 215.973 143.708 236.344 168.837 236.344Z" stroke="white" stroke-width="1.6322" stroke-linecap="round" stroke-linejoin="round"/>
</g>
<g opacity="0.89">
<path opacity="0.89" d="M168.837 230.444C190.708 230.444 208.437 212.714 208.437 190.844C208.437 168.973 190.708 151.244 168.837 151.244C146.967 151.244 129.237 168.973 129.237 190.844C129.237 212.714 146.967 230.444 168.837 230.444Z" stroke="white" stroke-width="1.7688" stroke-linecap="round" stroke-linejoin="round"/>
</g>
<g opacity="0.89">
<path opacity="0.89" d="M168.837 224.554C187.454 224.554 202.547 209.461 202.547 190.844C202.547 172.226 187.454 157.134 168.837 157.134C150.219 157.134 135.127 172.226 135.127 190.844C135.127 209.461 150.219 224.554 168.837 224.554Z" stroke="white" stroke-width="1.9054" stroke-linecap="round" stroke-linejoin="round"/>
</g>
<g opacity="0.89">
<path opacity="0.89" d="M168.837 218.654C184.196 218.654 196.647 206.203 196.647 190.844C196.647 175.485 184.196 163.034 168.837 163.034C153.478 163.034 141.027 175.485 141.027 190.844C141.027 206.203 153.478 218.654 168.837 218.654Z" stroke="white" stroke-width="2.042" stroke-linecap="round" stroke-linejoin="round"/>
</g>
<g opacity="0.89">
<path opacity="0.89" d="M168.837 212.754C180.938 212.754 190.747 202.944 190.747 190.844C190.747 178.743 180.938 168.934 168.837 168.934C156.736 168.934 146.927 178.743 146.927 190.844C146.927 202.944 156.736 212.754 168.837 212.754Z" stroke="white" stroke-width="2.1786" stroke-linecap="round" stroke-linejoin="round"/>
</g>
<g opacity="0.89">
<path opacity="0.89" d="M168.837 206.854C177.679 206.854 184.847 199.686 184.847 190.844C184.847 182.002 177.679 174.834 168.837 174.834C159.995 174.834 152.827 182.002 152.827 190.844C152.827 199.686 159.995 206.854 168.837 206.854Z" stroke="white" stroke-width="2.3152" stroke-linecap="round" stroke-linejoin="round"/>
</g>
</g>
<g opacity="0.81">
<g opacity="0.81">
<path opacity="0.81" d="M844.373 102.702C902.915 44.1593 902.915 -50.7575 844.372 -109.3C785.83 -167.843 690.913 -167.843 632.37 -109.3C573.827 -50.7575 573.827 44.1594 632.37 102.702C690.913 161.245 785.83 161.245 844.373 102.702Z" stroke="white" stroke-width="1.0531" stroke-linecap="round" stroke-linejoin="round"/>
</g>
<g opacity="0.81">
<path opacity="0.81" d="M738.377 140.874C818.005 140.874 882.557 76.3221 882.557 -3.30634C882.557 -82.9348 818.005 -147.486 738.377 -147.486C658.749 -147.486 594.197 -82.9348 594.197 -3.30634C594.197 76.3221 658.749 140.874 738.377 140.874Z" stroke="white" stroke-width="1.1458" stroke-linecap="round" stroke-linejoin="round"/>
</g>
<g opacity="0.81">
<path opacity="0.81" d="M836.276 94.6059C890.348 40.5345 890.348 -47.1327 836.276 -101.204C782.205 -155.276 694.538 -155.276 640.466 -101.204C586.395 -47.1327 586.395 40.5345 640.466 94.606C694.538 148.677 782.205 148.677 836.276 94.6059Z" stroke="white" stroke-width="1.2385" stroke-linecap="round" stroke-linejoin="round"/>
</g>
<g opacity="0.81">
<path opacity="0.81" d="M738.377 129.424C811.682 129.424 871.107 69.9984 871.107 -3.30634C871.107 -76.6111 811.682 -136.036 738.377 -136.036C665.072 -136.036 605.647 -76.6111 605.647 -3.30634C605.647 69.9984 665.072 129.424 738.377 129.424Z" stroke="white" stroke-width="1.3312" stroke-linecap="round" stroke-linejoin="round"/>
</g>
<g opacity="0.81">
<path opacity="0.81" d="M738.377 123.704C808.523 123.704 865.387 66.8393 865.387 -3.30634C865.387 -73.452 808.523 -130.316 738.377 -130.316C668.231 -130.316 611.367 -73.452 611.367 -3.30634C611.367 66.8393 668.231 123.704 738.377 123.704Z" stroke="white" stroke-width="1.4239" stroke-linecap="round" stroke-linejoin="round"/>
</g>
<g opacity="0.81">
<path opacity="0.81" d="M738.377 117.974C805.358 117.974 859.657 63.6748 859.657 -3.30634C859.657 -70.2874 805.358 -124.586 738.377 -124.586C671.396 -124.586 617.097 -70.2874 617.097 -3.30634C617.097 63.6748 671.396 117.974 738.377 117.974Z" stroke="white" stroke-width="1.5166" stroke-linecap="round" stroke-linejoin="round"/>
</g>
<g opacity="0.81">
<path opacity="0.81" d="M738.377 112.244C802.194 112.244 853.927 60.5102 853.927 -3.30632C853.927 -67.1228 802.194 -118.856 738.377 -118.856C674.561 -118.856 622.827 -67.1228 622.827 -3.30632C622.827 60.5102 674.561 112.244 738.377 112.244Z" stroke="white" stroke-width="1.6093" stroke-linecap="round" stroke-linejoin="round"/>
</g>
<g opacity="0.81">
<path opacity="0.81" d="M738.377 106.524C799.034 106.524 848.207 57.3511 848.207 -3.30632C848.207 -63.9638 799.034 -113.136 738.377 -113.136C677.719 -113.136 628.547 -63.9638 628.547 -3.30632C628.547 57.3511 677.719 106.524 738.377 106.524Z" stroke="white" stroke-width="1.702" stroke-linecap="round" stroke-linejoin="round"/>
</g>
<g opacity="0.81">
<path opacity="0.81" d="M738.377 100.794C795.87 100.794 842.477 54.1865 842.477 -3.30633C842.477 -60.7992 795.87 -107.406 738.377 -107.406C680.884 -107.406 634.277 -60.7992 634.277 -3.30633C634.277 54.1865 680.884 100.794 738.377 100.794Z" stroke="white" stroke-width="1.7948" stroke-linecap="round" stroke-linejoin="round"/>
</g>
<g opacity="0.81">
<path opacity="0.81" d="M738.377 95.0737C792.711 95.0737 836.757 51.0275 836.757 -3.30633C836.757 -57.6401 792.711 -101.686 738.377 -101.686C684.043 -101.686 639.997 -57.6401 639.997 -3.30633C639.997 51.0275 684.043 95.0737 738.377 95.0737Z" stroke="white" stroke-width="1.8875" stroke-linecap="round" stroke-linejoin="round"/>
</g>
<g opacity="0.81">
<path opacity="0.81" d="M738.377 89.3437C789.546 89.3437 831.027 47.8629 831.027 -3.30634C831.027 -54.4755 789.546 -95.9563 738.377 -95.9563C687.208 -95.9563 645.727 -54.4755 645.727 -3.30634C645.727 47.8629 687.208 89.3437 738.377 89.3437Z" stroke="white" stroke-width="1.9802" stroke-linecap="round" stroke-linejoin="round"/>
</g>
<g opacity="0.81">
<path opacity="0.81" d="M738.377 83.6137C786.382 83.6137 825.297 44.6983 825.297 -3.30634C825.297 -51.3109 786.382 -90.2263 738.377 -90.2263C690.372 -90.2263 651.457 -51.3109 651.457 -3.30634C651.457 44.6983 690.372 83.6137 738.377 83.6137Z" stroke="white" stroke-width="2.0729" stroke-linecap="round" stroke-linejoin="round"/>
</g>
<g opacity="0.81">
<path opacity="0.81" d="M741.294 77.8951C786.113 76.2986 821.151 38.6717 819.555 -6.14695C817.958 -50.9656 780.331 -86.004 735.513 -84.4075C690.694 -82.811 655.656 -45.1841 657.252 -0.365506C658.849 44.4531 696.476 79.4916 741.294 77.8951Z" stroke="white" stroke-width="2.1656" stroke-linecap="round" stroke-linejoin="round"/>
</g>
<g opacity="0.81">
<path opacity="0.81" d="M738.377 72.1637C780.058 72.1637 813.847 38.3746 813.847 -3.30634C813.847 -44.9873 780.058 -78.7763 738.377 -78.7763C696.696 -78.7763 662.907 -44.9873 662.907 -3.30634C662.907 38.3746 696.696 72.1637 738.377 72.1637Z" stroke="white" stroke-width="2.2583" stroke-linecap="round" stroke-linejoin="round"/>
</g>
<g opacity="0.81">
<path opacity="0.81" d="M740.887 66.4519C779.386 65.0806 809.483 32.7594 808.112 -5.73931C806.74 -44.2381 774.419 -74.3357 735.921 -72.9644C697.422 -71.593 667.324 -39.2719 668.696 -0.773111C670.067 37.7256 702.388 67.8233 740.887 66.4519Z" stroke="white" stroke-width="2.351" stroke-linecap="round" stroke-linejoin="round"/>
</g>
<g opacity="0.81">
<path opacity="0.81" d="M738.377 60.7137C773.734 60.7137 802.397 32.0509 802.397 -3.30633C802.397 -38.6636 773.734 -67.3263 738.377 -67.3263C703.02 -67.3263 674.357 -38.6636 674.357 -3.30633C674.357 32.0509 703.02 60.7137 738.377 60.7137Z" stroke="white" stroke-width="2.4437" stroke-linecap="round" stroke-linejoin="round"/>
</g>
<g opacity="0.81">
<path opacity="0.81" d="M740.479 54.9988C772.652 53.8528 797.805 26.842 796.659 -5.33133C795.513 -37.5047 768.502 -62.6573 736.329 -61.5112C704.155 -60.3652 679.003 -33.3544 680.149 -1.18108C681.295 30.9923 708.305 56.1449 740.479 54.9988Z" stroke="white" stroke-width="2.5364" stroke-linecap="round" stroke-linejoin="round"/>
</g>
<g opacity="0.81">
<path opacity="0.81" d="M738.377 49.2637C767.411 49.2637 790.947 25.7273 790.947 -3.30633C790.947 -32.3399 767.411 -55.8763 738.377 -55.8763C709.344 -55.8763 685.807 -32.3399 685.807 -3.30633C685.807 25.7273 709.344 49.2637 738.377 49.2637Z" stroke="white" stroke-width="2.6292" stroke-linecap="round" stroke-linejoin="round"/>
</g>
<g opacity="0.81">
<path opacity="0.81" d="M740.071 43.5557C765.925 42.6347 786.137 20.9298 785.216 -4.92372C784.295 -30.7772 762.59 -50.989 736.736 -50.0681C710.883 -49.1472 690.671 -27.4422 691.592 -1.58871C692.513 24.2648 714.218 44.4766 740.071 43.5557Z" stroke="white" stroke-width="2.7219" stroke-linecap="round" stroke-linejoin="round"/>
</g>
<g opacity="0.81">
<path opacity="0.81" d="M738.377 37.8137C761.087 37.8137 779.497 19.4036 779.497 -3.30634C779.497 -26.0163 761.087 -44.4263 738.377 -44.4263C715.667 -44.4263 697.257 -26.0163 697.257 -3.30634C697.257 19.4036 715.667 37.8137 738.377 37.8137Z" stroke="white" stroke-width="2.8146" stroke-linecap="round" stroke-linejoin="round"/>
</g>
<g opacity="0.81">
<path opacity="0.81" d="M739.663 32.1125C759.197 31.4167 774.468 15.0175 773.772 -4.51611C773.076 -24.0497 756.677 -39.3208 737.144 -38.625C717.61 -37.9292 702.339 -21.53 703.035 -1.99635C703.731 17.5373 720.13 32.8084 739.663 32.1125Z" stroke="white" stroke-width="2.9073" stroke-linecap="round" stroke-linejoin="round"/>
</g>
<g opacity="0.81">
<path opacity="0.81" d="M738.377 26.3537C754.758 26.3537 768.037 13.0744 768.037 -3.30634C768.037 -19.6871 754.758 -32.9663 738.377 -32.9663C721.996 -32.9663 708.717 -19.6871 708.717 -3.30634C708.717 13.0744 721.996 26.3537 738.377 26.3537Z" stroke="white" stroke-width="3" stroke-linecap="round" stroke-linejoin="round"/>
</g>
</g>
<g opacity="0.77">
<g opacity="0.77">
<path opacity="0.77" d="M262.187 240.904L122.687 380.404" stroke="white" stroke-width="2" stroke-miterlimit="10"/>
<path opacity="0.77" d="M270.207 240.904L130.707 380.404" stroke="white" stroke-width="2" stroke-miterlimit="10"/>
<path opacity="0.77" d="M278.217 240.904L138.717 380.404" stroke="white" stroke-width="2" stroke-miterlimit="10"/>
<path opacity="0.77" d="M286.237 240.904L146.737 380.404" stroke="white" stroke-width="2" stroke-miterlimit="10"/>
<path opacity="0.77" d="M294.257 240.904L154.757 380.404" stroke="white" stroke-width="2" stroke-miterlimit="10"/>
<path opacity="0.77" d="M302.277 240.904L162.777 380.404" stroke="white" stroke-width="2" stroke-miterlimit="10"/>
<path opacity="0.77" d="M310.287 240.904L170.787 380.404" stroke="white" stroke-width="2" stroke-miterlimit="10"/>
<path opacity="0.77" d="M318.307 240.904L178.807 380.404" stroke="white" stroke-width="2" stroke-miterlimit="10"/>
<path opacity="0.77" d="M326.327 240.904L186.827 380.404" stroke="white" stroke-width="2" stroke-miterlimit="10"/>
<path opacity="0.77" d="M334.347 240.904L194.847 380.404" stroke="white" stroke-width="2" stroke-miterlimit="10"/>
<path opacity="0.77" d="M342.357 240.904L202.857 380.404" stroke="white" stroke-width="2" stroke-miterlimit="10"/>
<path opacity="0.77" d="M350.377 240.904L210.877 380.404" stroke="white" stroke-width="2" stroke-miterlimit="10"/>
<path opacity="0.77" d="M358.397 240.904L218.897 380.404" stroke="white" stroke-width="2" stroke-miterlimit="10"/>
<path opacity="0.77" d="M366.407 240.904L226.907 380.404" stroke="white" stroke-width="2" stroke-miterlimit="10"/>
<path opacity="0.77" d="M374.427 240.904L234.927 380.404" stroke="white" stroke-width="2" stroke-miterlimit="10"/>
<path opacity="0.77" d="M382.447 240.904L242.947 380.404" stroke="white" stroke-width="2" stroke-miterlimit="10"/>
<path opacity="0.77" d="M390.467 240.904L250.967 380.404" stroke="white" stroke-width="2" stroke-miterlimit="10"/>
<path opacity="0.77" d="M398.477 240.904L258.977 380.404" stroke="white" stroke-width="2" stroke-miterlimit="10"/>
<path opacity="0.77" d="M406.497 240.904L266.997 380.404" stroke="white" stroke-width="2" stroke-miterlimit="10"/>
<path opacity="0.77" d="M414.517 240.904L275.017 380.404" stroke="white" stroke-width="2" stroke-miterlimit="10"/>
<path opacity="0.77" d="M422.527 240.904L283.027 380.404" stroke="white" stroke-width="2" stroke-miterlimit="10"/>
<path opacity="0.77" d="M430.547 240.904L291.047 380.404" stroke="white" stroke-width="2" stroke-miterlimit="10"/>
<path opacity="0.77" d="M438.567 240.904L299.067 380.404" stroke="white" stroke-width="2" stroke-miterlimit="10"/>
<path opacity="0.77" d="M446.587 240.904L307.087 380.404" stroke="white" stroke-width="2" stroke-miterlimit="10"/>
<path opacity="0.77" d="M454.597 240.904L315.097 380.404" stroke="white" stroke-width="2" stroke-miterlimit="10"/>
<path opacity="0.77" d="M462.617 240.904L323.117 380.404" stroke="white" stroke-width="2" stroke-miterlimit="10"/>
<path opacity="0.77" d="M470.637 240.904L331.137 380.404" stroke="white" stroke-width="2" stroke-miterlimit="10"/>
<path opacity="0.77" d="M478.657 240.904L339.157 380.404" stroke="white" stroke-width="2" stroke-miterlimit="10"/>
<path opacity="0.77" d="M486.667 240.904L347.167 380.404" stroke="white" stroke-width="2" stroke-miterlimit="10"/>
<path opacity="0.77" d="M494.687 240.904L355.187 380.404" stroke="white" stroke-width="2" stroke-miterlimit="10"/>
</g>
</g>
<g opacity="0.72">
<path opacity="0.5" d="M-34.0238 -26L-191 130.976L-34.0238 287.952L122.952 130.976L-34.0238 -26Z" stroke="white" stroke-width="50" stroke-miterlimit="10"/>
<path opacity="0.5" d="M416.976 -172L260 -15.0239L416.976 141.952L573.952 -15.0238L416.976 -172Z" stroke="white" stroke-width="50" stroke-miterlimit="10"/>
<path opacity="0.5" d="M543.976 399L387 555.976L543.976 712.952L700.952 555.976L543.976 399Z" stroke="white" stroke-width="30" stroke-miterlimit="10"/>
</g>
<path opacity="0.5" d="M80.03 340.11C94.94 355.02 94.94 379.2 80.03 394.12L-86.13 560.28C-101.04 575.19 -125.22 575.19 -140.14 560.28C-155.05 545.37 -155.05 521.19 -140.14 506.27L26.02 340.11C40.94 325.2 65.12 325.2 80.03 340.11Z" fill="url(#paint1_linear_5_2043)"/>
<path opacity="0.5" d="M254.25 324.91C270.46 341.12 270.46 367.39 254.25 383.6L82.96 554.88C66.75 571.09 40.48 571.09 24.27 554.88C8.06005 538.67 8.06005 512.4 24.27 496.19L195.55 324.91C211.76 308.7 238.04 308.7 254.25 324.91Z" fill="url(#paint2_linear_5_2043)"/>
<path opacity="0.5" d="M248.02 437.67C255.74 445.39 255.74 457.9 248.02 465.61L170.38 543.25C162.66 550.97 150.15 550.97 142.44 543.25C134.72 535.53 134.72 523.02 142.44 515.31L220.08 437.67C227.8 429.96 240.31 429.96 248.02 437.67Z" fill="url(#paint3_linear_5_2043)"/>
<path opacity="0.5" d="M184.37 396.12C194.69 406.45 194.69 423.19 184.37 433.51L30.0799 587.8C19.7499 598.13 3.00995 598.13 -7.31005 587.8C-17.63 577.47 -17.63 560.73 -7.31005 550.41L146.98 396.12C157.3 385.79 174.04 385.79 184.37 396.12Z" fill="url(#paint4_linear_5_2043)"/>
<path opacity="0.5" d="M584.34 230.77C568.13 214.56 568.13 188.29 584.34 172.08L755.62 0.800001C771.83 -15.41 798.1 -15.41 814.31 0.800001C830.52 17.01 830.52 43.28 814.31 59.49L643.03 230.77C626.82 246.97 600.55 246.97 584.34 230.77Z" fill="url(#paint5_linear_5_2043)"/>
<path opacity="0.5" d="M581.17 88.32C573.45 80.6 573.45 68.09 581.17 60.38L658.81 -17.26C666.53 -24.98 679.04 -24.98 686.75 -17.26C694.47 -9.53999 694.47 2.97 686.75 10.68L609.11 88.32C601.4 96.03 588.89 96.03 581.17 88.32Z" fill="url(#paint6_linear_5_2043)"/>
<path opacity="0.5" d="M707.58 231.62C699.86 223.9 699.86 211.39 707.58 203.68L785.22 126.04C792.94 118.32 805.45 118.32 813.16 126.04C820.88 133.76 820.88 146.27 813.16 153.98L735.52 231.62C727.8 239.34 715.29 239.34 707.58 231.62Z" fill="url(#paint7_linear_5_2043)"/>
<g opacity="0.49">
<path opacity="0.49" d="M165.14 87.96C167.393 87.96 169.22 86.1333 169.22 83.88C169.22 81.6267 167.393 79.8 165.14 79.8C162.887 79.8 161.06 81.6267 161.06 83.88C161.06 86.1333 162.887 87.96 165.14 87.96Z" stroke="white" stroke-width="2" stroke-miterlimit="10" stroke-linecap="round" stroke-linejoin="round"/>
<path opacity="0.49" d="M444.28 360.92C444.28 363.17 442.45 365 440.2 365C437.95 365 436.12 363.17 436.12 360.92C436.12 358.67 437.95 356.84 440.2 356.84C442.45 356.84 444.28 358.67 444.28 360.92Z" stroke="white" stroke-width="2" stroke-miterlimit="10" stroke-linecap="round" stroke-linejoin="round"/>
<path opacity="0.49" d="M316.7 159.35C316.7 161.6 314.87 163.43 312.62 163.43C310.37 163.43 308.54 161.6 308.54 159.35C308.54 157.1 310.37 155.27 312.62 155.27C314.88 155.27 316.7 157.09 316.7 159.35Z" stroke="white" stroke-width="2" stroke-miterlimit="10" stroke-linecap="round" stroke-linejoin="round"/>
<path opacity="0.49" d="M29.9398 292.28C29.9398 294.53 28.1098 296.36 25.8598 296.36C23.6098 296.36 21.7798 294.53 21.7798 292.28C21.7798 290.03 23.6098 288.2 25.8598 288.2C28.1198 288.2 29.9398 290.03 29.9398 292.28Z" stroke="white" stroke-width="2" stroke-miterlimit="10" stroke-linecap="round" stroke-linejoin="round"/>
<path opacity="0.49" d="M71.2398 172.72C71.2398 174.97 69.4099 176.8 67.1599 176.8C64.9099 176.8 63.0798 174.97 63.0798 172.72C63.0798 170.47 64.9099 168.64 67.1599 168.64C69.4099 168.64 71.2398 170.47 71.2398 172.72Z" stroke="white" stroke-width="2" stroke-miterlimit="10" stroke-linecap="round" stroke-linejoin="round"/>
<g opacity="0.49">
<path opacity="0.49" d="M392.86 118.83V125.97" stroke="white" stroke-width="2" stroke-miterlimit="10" stroke-linecap="round" stroke-linejoin="round"/>
<path opacity="0.49" d="M396.43 122.4H389.3" stroke="white" stroke-width="2" stroke-miterlimit="10" stroke-linecap="round" stroke-linejoin="round"/>
</g>
<g opacity="0.49">
<path opacity="0.49" d="M692.9 357.36V364.49" stroke="white" stroke-width="2" stroke-miterlimit="10" stroke-linecap="round" stroke-linejoin="round"/>
<path opacity="0.49" d="M696.47 360.92H689.34" stroke="white" stroke-width="2" stroke-miterlimit="10" stroke-linecap="round" stroke-linejoin="round"/>
</g>
<g opacity="0.49">
<path opacity="0.49" d="M189.61 292.76V299.89" stroke="white" stroke-width="2" stroke-miterlimit="10" stroke-linecap="round" stroke-linejoin="round"/>
<path opacity="0.49" d="M193.18 296.32H186.05" stroke="white" stroke-width="2" stroke-miterlimit="10" stroke-linecap="round" stroke-linejoin="round"/>
</g>
<g opacity="0.49">
<g opacity="0.49">
<path opacity="0.49" d="M554.25 442.64V449.77" stroke="white" stroke-width="2" stroke-miterlimit="10" stroke-linecap="round" stroke-linejoin="round"/>
<path opacity="0.49" d="M557.81 446.2H550.68" stroke="white" stroke-width="2" stroke-miterlimit="10" stroke-linecap="round" stroke-linejoin="round"/>
</g>
<g opacity="0.49">
<path opacity="0.49" d="M532.69 442.64V449.77" stroke="white" stroke-width="2" stroke-miterlimit="10" stroke-linecap="round" stroke-linejoin="round"/>
<path opacity="0.49" d="M536.25 446.2H529.12" stroke="white" stroke-width="2" stroke-miterlimit="10" stroke-linecap="round" stroke-linejoin="round"/>
</g>
<g opacity="0.49">
<path opacity="0.49" d="M511.13 442.64V449.77" stroke="white" stroke-width="2" stroke-miterlimit="10" stroke-linecap="round" stroke-linejoin="round"/>
<path opacity="0.49" d="M514.69 446.2H507.56" stroke="white" stroke-width="2" stroke-miterlimit="10" stroke-linecap="round" stroke-linejoin="round"/>
</g>
</g>
<g opacity="0.49">
<g opacity="0.49">
<path opacity="0.49" d="M71.24 123.64V130.77" stroke="white" stroke-width="2" stroke-miterlimit="10" stroke-linecap="round" stroke-linejoin="round"/>
<path opacity="0.49" d="M74.7999 127.21H67.6699" stroke="white" stroke-width="2" stroke-miterlimit="10" stroke-linecap="round" stroke-linejoin="round"/>
</g>
<g opacity="0.49">
<path opacity="0.49" d="M49.6799 123.64V130.77" stroke="white" stroke-width="2" stroke-miterlimit="10" stroke-linecap="round" stroke-linejoin="round"/>
<path opacity="0.49" d="M53.2499 127.21H46.1099" stroke="white" stroke-width="2" stroke-miterlimit="10" stroke-linecap="round" stroke-linejoin="round"/>
</g>
<g opacity="0.49">
<path opacity="0.49" d="M28.1199 123.64V130.77" stroke="white" stroke-width="2" stroke-miterlimit="10" stroke-linecap="round" stroke-linejoin="round"/>
<path opacity="0.49" d="M31.6898 127.21H24.5598" stroke="white" stroke-width="2" stroke-miterlimit="10" stroke-linecap="round" stroke-linejoin="round"/>
</g>
</g>
<path opacity="0.49" d="M274.4 272.14L279.95 262.53H268.85L274.4 272.14Z" stroke="white" stroke-width="2" stroke-miterlimit="10" stroke-linecap="round" stroke-linejoin="round"/>
<path opacity="0.49" d="M539.82 125.97L534.27 135.58H545.37L539.82 125.97Z" stroke="white" stroke-width="2" stroke-miterlimit="10" stroke-linecap="round" stroke-linejoin="round"/>
<path opacity="0.49" d="M265.78 417.73C268.2 415.31 272.44 419.55 274.86 417.13C277.28 414.71 273.04 410.47 275.46 408.05C277.88 405.63 282.12 409.87 284.54 407.45C286.96 405.03 282.72 400.79 285.13 398.37C287.55 395.95 291.79 400.19 294.21 397.77C296.63 395.35 292.39 391.11 294.81 388.68C297.23 386.26 301.47 390.5 303.9 388.08" stroke="white" stroke-width="2" stroke-miterlimit="10" stroke-linecap="round" stroke-linejoin="round"/>
<path opacity="0.49" d="M476.57 397.96C478.99 395.54 483.23 399.78 485.65 397.36C488.07 394.94 483.83 390.7 486.25 388.28C488.67 385.86 492.91 390.1 495.33 387.68C497.75 385.26 493.51 381.02 495.92 378.6C498.34 376.18 502.58 380.42 505 378C507.42 375.58 503.18 371.34 505.6 368.91C508.02 366.49 512.26 370.73 514.69 368.31" stroke="white" stroke-width="2" stroke-miterlimit="10" stroke-linecap="round" stroke-linejoin="round"/>
<path opacity="0.49" d="M488.5 123.46C490.92 121.04 495.16 125.28 497.58 122.86C500 120.44 495.76 116.2 498.18 113.78C500.6 111.36 504.84 115.6 507.26 113.18C509.68 110.76 505.44 106.52 507.85 104.1C510.27 101.68 514.51 105.92 516.93 103.5C519.35 101.08 515.11 96.84 517.53 94.41C519.95 91.99 524.19 96.23 526.62 93.81" stroke="white" stroke-width="2" stroke-miterlimit="10" stroke-linecap="round" stroke-linejoin="round"/>
</g>
</g>
<defs>
<linearGradient id="paint0_linear_5_2043" x1="65.5979" y1="-62.4555" x2="654.468" y2="526.415" gradientUnits="userSpaceOnUse">
<stop offset="0.230503" stop-color="#FBD609" stop-opacity="0.83"/>
<stop offset="0.5154" stop-color="#CF6D0C" stop-opacity="0.83"/>
<stop offset="1" stop-color="#FB8E6A"/>
</linearGradient>
<linearGradient id="paint1_linear_5_2043" x1="80.035" y1="340.113" x2="-140.134" y2="560.282" gradientUnits="userSpaceOnUse">
<stop stop-color="white"/>
<stop offset="1" stop-opacity="0"/>
</linearGradient>
<linearGradient id="paint2_linear_5_2043" x1="254.245" y1="324.907" x2="24.2736" y2="554.879" gradientUnits="userSpaceOnUse">
<stop stop-color="white"/>
<stop offset="1" stop-opacity="0"/>
</linearGradient>
<linearGradient id="paint3_linear_5_2043" x1="248.023" y1="437.673" x2="142.437" y2="543.259" gradientUnits="userSpaceOnUse">
<stop stop-color="white"/>
<stop offset="1" stop-opacity="0"/>
</linearGradient>
<linearGradient id="paint4_linear_5_2043" x1="197.092" y1="383.398" x2="110.871" y2="469.618" gradientUnits="userSpaceOnUse">
<stop stop-color="white"/>
<stop offset="1" stop-opacity="0"/>
</linearGradient>
<linearGradient id="paint5_linear_5_2043" x1="584.339" y1="230.765" x2="814.311" y2="0.793643" gradientUnits="userSpaceOnUse">
<stop stop-color="white"/>
<stop offset="1" stop-opacity="0"/>
</linearGradient>
<linearGradient id="paint6_linear_5_2043" x1="581.17" y1="88.3152" x2="686.756" y2="-17.2708" gradientUnits="userSpaceOnUse">
<stop stop-color="white"/>
<stop offset="1" stop-opacity="0"/>
</linearGradient>
<linearGradient id="paint7_linear_5_2043" x1="707.575" y1="231.619" x2="813.161" y2="126.033" gradientUnits="userSpaceOnUse">
<stop stop-color="white"/>
<stop offset="1" stop-opacity="0"/>
</linearGradient>
<clipPath id="clip0_5_2043">
<rect width="750" height="497" fill="white"/>
</clipPath>
</defs>
</svg>
