<svg width="750" height="497" viewBox="0 0 750 497" fill="none" xmlns="http://www.w3.org/2000/svg">
<g clip-path="url(#clip0_5_2043)">
<path d="M750.33 -2.72H0.330078V497.28H750.33V-2.72Z" fill="url(#paint0_linear_5_2043)"/>
<g opacity="0.5">
<path opacity="0.5" d="M284.45 332.64C285.433 332.64 286.23 331.843 286.23 330.86C286.23 329.877 285.433 329.08 284.45 329.08C283.467 329.08 282.67 329.877 282.67 330.86C282.67 331.843 283.467 332.64 284.45 332.64Z" fill="white"/>
<path opacity="0.5" d="M284.45 347.95C285.433 347.95 286.23 347.153 286.23 346.17C286.23 345.187 285.433 344.39 284.45 344.39C283.467 344.39 282.67 345.187 282.67 346.17C282.67 347.153 283.467 347.95 284.45 347.95Z" fill="white"/>
<path opacity="0.5" d="M284.45 363.25C285.433 363.25 286.23 362.453 286.23 361.47C286.23 360.487 285.433 359.69 284.45 359.69C283.467 359.69 282.67 360.487 282.67 361.47C282.67 362.453 283.467 363.25 284.45 363.25Z" fill="white"/>
<path opacity="0.5" d="M284.45 378.56C285.433 378.56 286.23 377.763 286.23 376.78C286.23 375.797 285.433 375 284.45 375C283.467 375 282.67 375.797 282.67 376.78C282.67 377.763 283.467 378.56 284.45 378.56Z" fill="white"/>
<path opacity="0.5" d="M284.45 393.86C285.433 393.86 286.23 393.063 286.23 392.08C286.23 391.097 285.433 390.3 284.45 390.3C283.467 390.3 282.67 391.097 282.67 392.08C282.67 393.063 283.467 393.86 284.45 393.86Z" fill="white"/>
<path opacity="0.5" d="M284.45 409.17C285.433 409.17 286.23 408.373 286.23 407.39C286.23 406.407 285.433 405.61 284.45 405.61C283.467 405.61 282.67 406.407 282.67 407.39C282.67 408.373 283.467 409.17 284.45 409.17Z" fill="white"/>
<path opacity="0.5" d="M284.45 424.47C285.433 424.47 286.23 423.673 286.23 422.69C286.23 421.707 285.433 420.91 284.45 420.91C283.467 420.91 282.67 421.707 282.67 422.69C282.67 423.673 283.467 424.47 284.45 424.47Z" fill="white"/>
<path opacity="0.5" d="M284.45 439.77C283.47 439.77 282.67 438.97 282.67 437.99C282.67 437.01 283.47 436.21 284.45 436.21C285.43 436.21 286.23 437.01 286.23 437.99C286.23 438.98 285.43 439.77 284.45 439.77Z" fill="white"/>
<path opacity="0.5" d="M269.15 332.64C268.17 332.64 267.37 331.84 267.37 330.86C267.37 329.88 268.17 329.08 269.15 329.08C270.13 329.08 270.93 329.88 270.93 330.86C270.92 331.84 270.13 332.64 269.15 332.64Z" fill="white"/>
<path opacity="0.5" d="M269.15 347.94C268.17 347.94 267.37 347.14 267.37 346.16C267.37 345.18 268.17 344.38 269.15 344.38C270.13 344.38 270.93 345.18 270.93 346.16C270.92 347.15 270.13 347.94 269.15 347.94Z" fill="white"/>
<path opacity="0.5" d="M269.15 363.25C268.17 363.25 267.37 362.45 267.37 361.47C267.37 360.49 268.17 359.69 269.15 359.69C270.13 359.69 270.93 360.49 270.93 361.47C270.92 362.45 270.13 363.25 269.15 363.25Z" fill="white"/>
<path opacity="0.5" d="M269.15 378.55C268.17 378.55 267.37 377.75 267.37 376.77C267.37 375.79 268.17 374.99 269.15 374.99C270.13 374.99 270.93 375.79 270.93 376.77C270.92 377.76 270.13 378.55 269.15 378.55Z" fill="white"/>
<path opacity="0.5" d="M269.15 393.86C268.17 393.86 267.37 393.06 267.37 392.08C267.37 391.1 268.17 390.3 269.15 390.3C270.13 390.3 270.93 391.1 270.93 392.08C270.92 393.06 270.13 393.86 269.15 393.86Z" fill="white"/>
<path opacity="0.5" d="M269.15 409.16C268.17 409.16 267.37 408.36 267.37 407.38C267.37 406.4 268.17 405.6 269.15 405.6C270.13 405.6 270.93 406.4 270.93 407.38C270.93 408.36 270.13 409.16 269.15 409.16Z" fill="white"/>
<path opacity="0.5" d="M269.15 424.47C268.17 424.47 267.37 423.67 267.37 422.69C267.37 421.71 268.17 420.91 269.15 420.91C270.13 420.91 270.93 421.71 270.93 422.69C270.93 423.67 270.13 424.47 269.15 424.47Z" fill="white"/>
<path opacity="0.5" d="M269.15 439.77C268.17 439.77 267.37 438.97 267.37 437.99C267.37 437.01 268.17 436.21 269.15 436.21C270.13 436.21 270.93 437.01 270.93 437.99C270.92 438.98 270.13 439.77 269.15 439.77Z" fill="white"/>
<path opacity="0.5" d="M253.84 332.64C254.823 332.64 255.62 331.843 255.62 330.86C255.62 329.877 254.823 329.08 253.84 329.08C252.857 329.08 252.06 329.877 252.06 330.86C252.06 331.843 252.857 332.64 253.84 332.64Z" fill="white"/>
<path opacity="0.5" d="M253.84 347.95C254.823 347.95 255.62 347.153 255.62 346.17C255.62 345.187 254.823 344.39 253.84 344.39C252.857 344.39 252.06 345.187 252.06 346.17C252.06 347.153 252.857 347.95 253.84 347.95Z" fill="white"/>
<path opacity="0.5" d="M253.84 363.25C254.823 363.25 255.62 362.453 255.62 361.47C255.62 360.487 254.823 359.69 253.84 359.69C252.857 359.69 252.06 360.487 252.06 361.47C252.06 362.453 252.857 363.25 253.84 363.25Z" fill="white"/>
<path opacity="0.5" d="M253.84 378.56C254.823 378.56 255.62 377.763 255.62 376.78C255.62 375.797 254.823 375 253.84 375C252.857 375 252.06 375.797 252.06 376.78C252.06 377.763 252.857 378.56 253.84 378.56Z" fill="white"/>
<path opacity="0.5" d="M253.84 393.86C254.823 393.86 255.62 393.063 255.62 392.08C255.62 391.097 254.823 390.3 253.84 390.3C252.857 390.3 252.06 391.097 252.06 392.08C252.06 393.063 252.857 393.86 253.84 393.86Z" fill="white"/>
<path opacity="0.5" d="M253.84 409.17C254.823 409.17 255.62 408.373 255.62 407.39C255.62 406.407 254.823 405.61 253.84 405.61C252.857 405.61 252.06 406.407 252.06 407.39C252.06 408.373 252.857 409.17 253.84 409.17Z" fill="white"/>
<path opacity="0.5" d="M253.84 424.47C254.823 424.47 255.62 423.673 255.62 422.69C255.62 421.707 254.823 420.91 253.84 420.91C252.857 420.91 252.06 421.707 252.06 422.69C252.06 423.673 252.857 424.47 253.84 424.47Z" fill="white"/>
<path opacity="0.5" d="M253.84 439.77C252.86 439.77 252.06 438.97 252.06 437.99C252.06 437.01 252.86 436.21 253.84 436.21C254.82 436.21 255.62 437.01 255.62 437.99C255.62 438.98 254.82 439.77 253.84 439.77Z" fill="white"/>
<path opacity="0.5" d="M238.53 332.64C239.513 332.64 240.31 331.843 240.31 330.86C240.31 329.877 239.513 329.08 238.53 329.08C237.547 329.08 236.75 329.877 236.75 330.86C236.75 331.843 237.547 332.64 238.53 332.64Z" fill="white"/>
<path opacity="0.5" d="M238.53 347.95C239.513 347.95 240.31 347.153 240.31 346.17C240.31 345.187 239.513 344.39 238.53 344.39C237.547 344.39 236.75 345.187 236.75 346.17C236.75 347.153 237.547 347.95 238.53 347.95Z" fill="white"/>
<path opacity="0.5" d="M238.53 363.25C239.513 363.25 240.31 362.453 240.31 361.47C240.31 360.487 239.513 359.69 238.53 359.69C237.547 359.69 236.75 360.487 236.75 361.47C236.75 362.453 237.547 363.25 238.53 363.25Z" fill="white"/>
<path opacity="0.5" d="M238.53 378.56C239.513 378.56 240.31 377.763 240.31 376.78C240.31 375.797 239.513 375 238.53 375C237.547 375 236.75 375.797 236.75 376.78C236.75 377.763 237.547 378.56 238.53 378.56Z" fill="white"/>
<path opacity="0.5" d="M238.53 393.86C239.513 393.86 240.31 393.063 240.31 392.08C240.31 391.097 239.513 390.3 238.53 390.3C237.547 390.3 236.75 391.097 236.75 392.08C236.75 393.063 237.547 393.86 238.53 393.86Z" fill="white"/>
<path opacity="0.5" d="M238.53 409.17C239.513 409.17 240.31 408.373 240.31 407.39C240.31 406.407 239.513 405.61 238.53 405.61C237.547 405.61 236.75 406.407 236.75 407.39C236.75 408.373 237.547 409.17 238.53 409.17Z" fill="white"/>
<path opacity="0.5" d="M238.53 424.47C239.513 424.47 240.31 423.673 240.31 422.69C240.31 421.707 239.513 420.91 238.53 420.91C237.547 420.91 236.75 421.707 236.75 422.69C236.75 423.673 237.547 424.47 238.53 424.47Z" fill="white"/>
<path opacity="0.5" d="M238.53 439.77C237.55 439.77 236.75 438.97 236.75 437.99C236.75 437.01 237.55 436.21 238.53 436.21C239.51 436.21 240.31 437.01 240.31 437.99C240.31 438.98 239.52 439.77 238.53 439.77Z" fill="white"/>
<path opacity="0.5" d="M223.23 332.64C224.213 332.64 225.01 331.843 225.01 330.86C225.01 329.877 224.213 329.08 223.23 329.08C222.247 329.08 221.45 329.877 221.45 330.86C221.45 331.843 222.247 332.64 223.23 332.64Z" fill="white"/>
<path opacity="0.5" d="M223.23 347.95C224.213 347.95 225.01 347.153 225.01 346.17C225.01 345.187 224.213 344.39 223.23 344.39C222.247 344.39 221.45 345.187 221.45 346.17C221.45 347.153 222.247 347.95 223.23 347.95Z" fill="white"/>
<path opacity="0.5" d="M223.23 363.25C224.213 363.25 225.01 362.453 225.01 361.47C225.01 360.487 224.213 359.69 223.23 359.69C222.247 359.69 221.45 360.487 221.45 361.47C221.45 362.453 222.247 363.25 223.23 363.25Z" fill="white"/>
<path opacity="0.5" d="M223.23 378.56C224.213 378.56 225.01 377.763 225.01 376.78C225.01 375.797 224.213 375 223.23 375C222.247 375 221.45 375.797 221.45 376.78C221.45 377.763 222.247 378.56 223.23 378.56Z" fill="white"/>
<path opacity="0.5" d="M223.23 393.86C224.213 393.86 225.01 393.063 225.01 392.08C225.01 391.097 224.213 390.3 223.23 390.3C222.247 390.3 221.45 391.097 221.45 392.08C221.45 393.063 222.247 393.86 223.23 393.86Z" fill="white"/>
<path opacity="0.5" d="M223.23 409.17C224.213 409.17 225.01 408.373 225.01 407.39C225.01 406.407 224.213 405.61 223.23 405.61C222.247 405.61 221.45 406.407 221.45 407.39C221.45 408.373 222.247 409.17 223.23 409.17Z" fill="white"/>
<path opacity="0.5" d="M223.23 424.47C224.213 424.47 225.01 423.673 225.01 422.69C225.01 421.707 224.213 420.91 223.23 420.91C222.247 420.91 221.45 421.707 221.45 422.69C221.45 423.673 222.247 424.47 223.23 424.47Z" fill="white"/>
<path opacity="0.5" d="M223.23 439.77C222.25 439.77 221.45 438.97 221.45 437.99C221.45 437.01 222.25 436.21 223.23 436.21C224.21 436.21 225.01 437.01 225.01 437.99C225.01 438.98 224.21 439.77 223.23 439.77Z" fill="white"/>
<path opacity="0.5" d="M207.92 332.64C208.903 332.64 209.7 331.843 209.7 330.86C209.7 329.877 208.903 329.08 207.92 329.08C206.937 329.08 206.14 329.877 206.14 330.86C206.14 331.843 206.937 332.64 207.92 332.64Z" fill="white"/>
<path opacity="0.5" d="M207.92 347.95C208.903 347.95 209.7 347.153 209.7 346.17C209.7 345.187 208.903 344.39 207.92 344.39C206.937 344.39 206.14 345.187 206.14 346.17C206.14 347.153 206.937 347.95 207.92 347.95Z" fill="white"/>
<path opacity="0.5" d="M207.92 363.25C208.903 363.25 209.7 362.453 209.7 361.47C209.7 360.487 208.903 359.69 207.92 359.69C206.937 359.69 206.14 360.487 206.14 361.47C206.14 362.453 206.937 363.25 207.92 363.25Z" fill="white"/>
<path opacity="0.5" d="M207.92 378.56C208.903 378.56 209.7 377.763 209.7 376.78C209.7 375.797 208.903 375 207.92 375C206.937 375 206.14 375.797 206.14 376.78C206.14 377.763 206.937 378.56 207.92 378.56Z" fill="white"/>
<path opacity="0.5" d="M207.92 393.86C208.903 393.86 209.7 393.063 209.7 392.08C209.7 391.097 208.903 390.3 207.92 390.3C206.937 390.3 206.14 391.097 206.14 392.08C206.14 393.063 206.937 393.86 207.92 393.86Z" fill="white"/>
<path opacity="0.5" d="M207.92 409.17C208.903 409.17 209.7 408.373 209.7 407.39C209.7 406.407 208.903 405.61 207.92 405.61C206.937 405.61 206.14 406.407 206.14 407.39C206.14 408.373 206.937 409.17 207.92 409.17Z" fill="white"/>
<path opacity="0.5" d="M207.92 424.47C208.903 424.47 209.7 423.673 209.7 422.69C209.7 421.707 208.903 420.91 207.92 420.91C206.937 420.91 206.14 421.707 206.14 422.69C206.14 423.673 206.937 424.47 207.92 424.47Z" fill="white"/>
<path opacity="0.5" d="M207.92 439.77C206.94 439.77 206.14 438.97 206.14 437.99C206.14 437.01 206.94 436.21 207.92 436.21C208.9 436.21 209.7 437.01 209.7 437.99C209.7 438.98 208.9 439.77 207.92 439.77Z" fill="white"/>
</g>
<g opacity="0.5">
<path opacity="0.5" d="M89.06 101.7C89.06 102.68 88.26 103.48 87.28 103.48C86.3 103.48 85.5 102.68 85.5 101.7C85.5 100.72 86.3 99.92 87.28 99.92C88.26 99.92 89.06 100.72 89.06 101.7Z" fill="white"/>
<path opacity="0.5" d="M104.37 101.7C104.37 102.68 103.57 103.48 102.59 103.48C101.61 103.48 100.81 102.68 100.81 101.7C100.81 100.72 101.61 99.92 102.59 99.92C103.57 99.93 104.37 100.72 104.37 101.7Z" fill="white"/>
<path opacity="0.5" d="M119.67 101.7C119.67 102.68 118.87 103.48 117.89 103.48C116.91 103.48 116.11 102.68 116.11 101.7C116.11 100.72 116.91 99.92 117.89 99.92C118.87 99.92 119.67 100.72 119.67 101.7Z" fill="white"/>
<path opacity="0.5" d="M89.06 117.01C89.06 117.99 88.26 118.79 87.28 118.79C86.3 118.79 85.5 117.99 85.5 117.01C85.5 116.03 86.3 115.23 87.28 115.23C88.26 115.23 89.06 116.03 89.06 117.01Z" fill="white"/>
<path opacity="0.5" d="M104.37 117.01C104.37 117.99 103.57 118.79 102.59 118.79C101.61 118.79 100.81 117.99 100.81 117.01C100.81 116.03 101.61 115.23 102.59 115.23C103.57 115.23 104.37 116.03 104.37 117.01Z" fill="white"/>
<path opacity="0.5" d="M119.67 117.01C119.67 117.99 118.87 118.79 117.89 118.79C116.91 118.79 116.11 117.99 116.11 117.01C116.11 116.03 116.91 115.23 117.89 115.23C118.87 115.23 119.67 116.03 119.67 117.01Z" fill="white"/>
<path opacity="0.5" d="M89.06 132.31C89.06 133.29 88.26 134.09 87.28 134.09C86.3 134.09 85.5 133.29 85.5 132.31C85.5 131.33 86.3 130.53 87.28 130.53C88.26 130.53 89.06 131.33 89.06 132.31Z" fill="white"/>
<path opacity="0.5" d="M104.37 132.31C104.37 133.29 103.57 134.09 102.59 134.09C101.61 134.09 100.81 133.29 100.81 132.31C100.81 131.33 101.61 130.53 102.59 130.53C103.57 130.54 104.37 131.33 104.37 132.31Z" fill="white"/>
<path opacity="0.5" d="M119.67 132.31C119.67 133.29 118.87 134.09 117.89 134.09C116.91 134.09 116.11 133.29 116.11 132.31C116.11 131.33 116.91 130.53 117.89 130.53C118.87 130.53 119.67 131.33 119.67 132.31Z" fill="white"/>
</g>
<g opacity="0.5">
<path opacity="0.5" d="M213.26 265.75L148.79 330.23" stroke="white" stroke-width="2.1221" stroke-miterlimit="10"/>
<path opacity="0.5" d="M209.08 261.56L144.6 326.04" stroke="white" stroke-width="2.1221" stroke-miterlimit="10"/>
<path opacity="0.5" d="M204.89 257.38L140.41 321.85" stroke="white" stroke-width="2.1221" stroke-miterlimit="10"/>
<path opacity="0.5" d="M200.7 253.19L136.22 317.67" stroke="white" stroke-width="2.1221" stroke-miterlimit="10"/>
<path opacity="0.5" d="M196.51 249L132.03 313.48" stroke="white" stroke-width="2.1221" stroke-miterlimit="10"/>
<path opacity="0.5" d="M192.32 244.81L127.84 309.29" stroke="white" stroke-width="2.1221" stroke-miterlimit="10"/>
<path opacity="0.5" d="M188.13 240.62L123.65 305.1" stroke="white" stroke-width="2.1221" stroke-miterlimit="10"/>
<path opacity="0.5" d="M183.94 236.43L119.46 300.91" stroke="white" stroke-width="2.1221" stroke-miterlimit="10"/>
<path opacity="0.5" d="M179.75 232.24L115.27 296.72" stroke="white" stroke-width="2.1221" stroke-miterlimit="10"/>
<path opacity="0.5" d="M175.56 228.05L111.08 292.53" stroke="white" stroke-width="2.1221" stroke-miterlimit="10"/>
<path opacity="0.5" d="M171.37 223.86L106.89 288.34" stroke="white" stroke-width="2.1221" stroke-miterlimit="10"/>
<path opacity="0.5" d="M167.18 219.67L102.7 284.15" stroke="white" stroke-width="2.1221" stroke-miterlimit="10"/>
<path opacity="0.5" d="M162.99 215.48L98.51 279.96" stroke="white" stroke-width="2.1221" stroke-miterlimit="10"/>
<path opacity="0.5" d="M158.8 211.29L94.3201 275.77" stroke="white" stroke-width="2.1221" stroke-miterlimit="10"/>
<path opacity="0.5" d="M154.61 207.1L90.1299 271.58" stroke="white" stroke-width="2.1221" stroke-miterlimit="10"/>
<path opacity="0.5" d="M150.42 202.91L85.9399 267.39" stroke="white" stroke-width="2.1221" stroke-miterlimit="10"/>
<path opacity="0.5" d="M146.23 198.72L81.75 263.2" stroke="white" stroke-width="2.1221" stroke-miterlimit="10"/>
<path opacity="0.5" d="M142.04 194.53L77.5701 259.01" stroke="white" stroke-width="2.1221" stroke-miterlimit="10"/>
<path opacity="0.5" d="M137.86 190.35L73.3799 254.82" stroke="white" stroke-width="2.1221" stroke-miterlimit="10"/>
<path opacity="0.5" d="M133.67 186.16L69.1899 250.63" stroke="white" stroke-width="2.1221" stroke-miterlimit="10"/>
<path opacity="0.5" d="M129.48 181.97L65 246.45" stroke="white" stroke-width="2.1221" stroke-miterlimit="10"/>
</g>
<g opacity="0.8">
<path opacity="0.8" d="M181.018 201.018C236.066 145.971 236.066 56.7206 181.018 1.67282C125.971 -53.375 36.7206 -53.3749 -18.3272 1.67284C-73.375 56.7206 -73.375 145.971 -18.3272 201.018C36.7206 256.066 125.971 256.066 181.018 201.018Z" stroke="white" stroke-width="0.5" stroke-miterlimit="10"/>
<path opacity="0.8" d="M175.998 195.998C228.273 143.723 228.273 58.9683 175.998 6.69326C123.723 -45.5818 38.9682 -45.5818 -13.3068 6.69325C-65.5819 58.9683 -65.5819 143.723 -13.3068 195.998C38.9683 248.273 123.723 248.273 175.998 195.998Z" stroke="white" stroke-width="0.6562" stroke-miterlimit="10"/>
<path opacity="0.8" d="M81.3469 228.094C151.349 228.094 208.097 171.346 208.097 101.344C208.097 31.3416 151.349 -25.4063 81.3469 -25.4063C11.3448 -25.4063 -45.4031 31.3416 -45.4031 101.344C-45.4031 171.346 11.3448 228.094 81.3469 228.094Z" stroke="white" stroke-width="0.8125" stroke-miterlimit="10"/>
<path opacity="0.8" d="M81.347 220.994C147.428 220.994 200.997 167.425 200.997 101.344C200.997 35.2628 147.428 -18.3063 81.347 -18.3063C15.2661 -18.3063 -38.303 35.2628 -38.303 101.344C-38.303 167.425 15.2661 220.994 81.347 220.994Z" stroke="white" stroke-width="0.9688" stroke-miterlimit="10"/>
<path opacity="0.8" d="M160.93 180.93C204.883 136.977 204.883 65.7146 160.93 21.7616C116.977 -22.1915 45.7147 -22.1915 1.76158 21.7615C-42.1915 65.7146 -42.1915 136.977 1.76159 180.93C45.7147 224.883 116.977 224.883 160.93 180.93Z" stroke="white" stroke-width="1.125" stroke-miterlimit="10"/>
<path opacity="0.8" d="M155.909 175.909C197.09 134.729 197.09 67.9624 155.909 26.782C114.729 -14.3984 47.9623 -14.3984 6.78194 26.782C-34.3984 67.9624 -34.3984 134.729 6.78196 175.909C47.9624 217.09 114.729 217.09 155.909 175.909Z" stroke="white" stroke-width="1.2812" stroke-miterlimit="10"/>
<path opacity="0.8" d="M150.889 170.889C189.297 132.481 189.297 70.21 150.889 31.8024C112.481 -6.60534 50.21 -6.60531 11.8023 31.8024C-26.6054 70.2101 -26.6054 132.481 11.8023 170.889C50.21 209.297 112.481 209.297 150.889 170.889Z" stroke="white" stroke-width="1.4375" stroke-miterlimit="10"/>
<path opacity="0.8" d="M145.868 165.869C181.503 130.234 181.503 72.4578 145.868 36.8228C110.233 1.18778 52.4577 1.18777 16.8227 36.8228C-18.8123 72.4578 -18.8123 130.234 16.8227 165.869C52.4577 201.504 110.233 201.504 145.868 165.869Z" stroke="white" stroke-width="1.5938" stroke-miterlimit="10"/>
<path opacity="0.8" d="M164.438 114.77C171.842 68.8902 140.65 25.6955 94.7705 18.2921C48.8906 10.8886 5.69597 42.08 -1.70745 87.9599C-9.11088 133.84 22.0805 177.034 67.9603 184.438C113.84 191.841 157.035 160.65 164.438 114.77Z" stroke="white" stroke-width="1.75" stroke-miterlimit="10"/>
<path opacity="0.8" d="M81.3471 178.394C123.901 178.394 158.397 143.897 158.397 101.344C158.397 58.7901 123.901 24.2937 81.3471 24.2937C38.7936 24.2937 4.29712 58.7901 4.29712 101.344C4.29712 143.897 38.7936 178.394 81.3471 178.394Z" stroke="white" stroke-width="1.9062" stroke-miterlimit="10"/>
<path opacity="0.8" d="M130.807 150.807C158.124 123.49 158.124 79.2009 130.807 51.884C103.49 24.5671 59.2009 24.5671 31.884 51.884C4.56708 79.2009 4.5671 123.49 31.884 150.807C59.2009 178.124 103.49 178.124 130.807 150.807Z" stroke="white" stroke-width="2.0625" stroke-miterlimit="10"/>
<path opacity="0.8" d="M125.78 145.78C150.32 121.239 150.32 81.4518 125.78 56.9115C101.239 32.3712 61.4518 32.3712 36.9115 56.9115C12.3711 81.4518 12.3711 121.239 36.9115 145.78C61.4518 170.32 101.239 170.32 125.78 145.78Z" stroke="white" stroke-width="2.2188" stroke-miterlimit="10"/>
<path opacity="0.8" d="M120.759 140.759C142.527 118.992 142.527 83.6995 120.759 61.9319C98.9917 40.1643 63.6994 40.1643 41.9318 61.9319C20.1642 83.6995 20.1642 118.992 41.9318 140.759C63.6994 162.527 98.9917 162.527 120.759 140.759Z" stroke="white" stroke-width="2.375" stroke-miterlimit="10"/>
<path opacity="0.8" d="M115.739 135.739C134.734 116.744 134.734 85.9472 115.739 66.9523C96.7442 47.9574 65.9473 47.9574 46.9524 66.9523C27.9575 85.9472 27.9575 116.744 46.9524 135.739C65.9473 154.734 96.7442 154.734 115.739 135.739Z" stroke="white" stroke-width="2.5312" stroke-miterlimit="10"/>
<path opacity="0.8" d="M122.587 106.207C125.276 83.4235 108.986 62.774 86.2025 60.0852C63.4189 57.3964 42.7694 73.6865 40.0806 96.4702C37.3919 119.254 53.6819 139.903 76.4655 142.592C99.2492 145.281 119.899 128.991 122.587 106.207Z" stroke="white" stroke-width="2.6875" stroke-miterlimit="10"/>
<path opacity="0.8" d="M81.347 135.784C100.368 135.784 115.787 120.364 115.787 101.344C115.787 82.323 100.368 66.9037 81.347 66.9037C62.3263 66.9037 46.907 82.323 46.907 101.344C46.907 120.364 62.3263 135.784 81.347 135.784Z" stroke="white" stroke-width="2.8438" stroke-miterlimit="10"/>
<path opacity="0.8" d="M108.621 103.542C109.82 88.4907 98.5903 75.3174 83.5392 74.1185C68.488 72.9196 55.3148 84.1491 54.1159 99.2002C52.917 114.251 64.1464 127.425 79.1976 128.624C94.2487 129.822 107.422 118.593 108.621 103.542Z" stroke="white" stroke-width="3" stroke-miterlimit="10"/>
</g>
<g opacity="0.79">
<path opacity="0.79" d="M303.209 420.891C339.227 384.873 339.227 326.477 303.209 290.459C267.191 254.441 208.795 254.441 172.777 290.459C136.76 326.477 136.76 384.873 172.777 420.891C208.795 456.909 267.191 456.908 303.209 420.891Z" stroke="white" stroke-width="0.5" stroke-miterlimit="10"/>
<path opacity="0.79" d="M298.613 416.295C332.092 382.815 332.092 328.535 298.613 295.055C265.134 261.576 210.853 261.576 177.374 295.055C143.894 328.535 143.894 382.815 177.374 416.295C210.853 449.774 265.134 449.774 298.613 416.295Z" stroke="white" stroke-width="0.7273" stroke-miterlimit="10"/>
<path opacity="0.79" d="M237.997 434.904C281.755 434.904 317.227 399.431 317.227 355.674C317.227 311.916 281.755 276.444 237.997 276.444C194.24 276.444 158.767 311.916 158.767 355.674C158.767 399.431 194.24 434.904 237.997 434.904Z" stroke="white" stroke-width="0.9545" stroke-miterlimit="10"/>
<path opacity="0.79" d="M237.997 428.414C278.17 428.414 310.737 395.847 310.737 355.674C310.737 315.5 278.17 282.934 237.997 282.934C197.824 282.934 165.257 315.5 165.257 355.674C165.257 395.847 197.824 428.414 237.997 428.414Z" stroke="white" stroke-width="1.1818" stroke-miterlimit="10"/>
<path opacity="0.79" d="M237.997 421.914C274.58 421.914 304.237 392.257 304.237 355.674C304.237 319.09 274.58 289.434 237.997 289.434C201.414 289.434 171.757 319.09 171.757 355.674C171.757 392.257 201.414 421.914 237.997 421.914Z" stroke="white" stroke-width="1.4091" stroke-miterlimit="10"/>
<path opacity="0.79" d="M237.997 415.414C270.991 415.414 297.737 388.667 297.737 355.674C297.737 322.68 270.991 295.934 237.997 295.934C205.004 295.934 178.257 322.68 178.257 355.674C178.257 388.667 205.004 415.414 237.997 415.414Z" stroke="white" stroke-width="1.6364" stroke-miterlimit="10"/>
<path opacity="0.79" d="M237.997 408.914C267.401 408.914 291.237 385.077 291.237 355.674C291.237 326.27 267.401 302.434 237.997 302.434C208.593 302.434 184.757 326.27 184.757 355.674C184.757 385.077 208.593 408.914 237.997 408.914Z" stroke="white" stroke-width="1.8636" stroke-miterlimit="10"/>
<path opacity="0.79" d="M237.997 402.414C263.811 402.414 284.737 381.487 284.737 355.674C284.737 329.86 263.811 308.934 237.997 308.934C212.183 308.934 191.257 329.86 191.257 355.674C191.257 381.487 212.183 402.414 237.997 402.414Z" stroke="white" stroke-width="2.0909" stroke-miterlimit="10"/>
<path opacity="0.79" d="M237.997 395.914C260.221 395.914 278.237 377.898 278.237 355.674C278.237 333.45 260.221 315.434 237.997 315.434C215.773 315.434 197.757 333.45 197.757 355.674C197.757 377.898 215.773 395.914 237.997 395.914Z" stroke="white" stroke-width="2.3182" stroke-miterlimit="10"/>
<path opacity="0.79" d="M237.997 389.414C256.631 389.414 271.737 374.308 271.737 355.674C271.737 337.04 256.631 321.934 237.997 321.934C219.363 321.934 204.257 337.04 204.257 355.674C204.257 374.308 219.363 389.414 237.997 389.414Z" stroke="white" stroke-width="2.5454" stroke-miterlimit="10"/>
<path opacity="0.79" d="M237.997 382.914C253.041 382.914 265.237 370.718 265.237 355.674C265.237 340.629 253.041 328.434 237.997 328.434C222.953 328.434 210.757 340.629 210.757 355.674C210.757 370.718 222.953 382.914 237.997 382.914Z" stroke="white" stroke-width="2.7727" stroke-miterlimit="10"/>
<path opacity="0.79" d="M237.997 376.414C249.451 376.414 258.737 367.128 258.737 355.674C258.737 344.219 249.451 334.934 237.997 334.934C226.543 334.934 217.257 344.219 217.257 355.674C217.257 367.128 226.543 376.414 237.997 376.414Z" stroke="white" stroke-width="3" stroke-miterlimit="10"/>
</g>
<g opacity="0.89">
<g opacity="0.89">
<path opacity="0.89" d="M-31.163 395.744C13.5168 395.744 49.737 359.523 49.737 314.844C49.737 270.164 13.5168 233.944 -31.163 233.944C-75.8428 233.944 -112.063 270.164 -112.063 314.844C-112.063 359.523 -75.8428 395.744 -31.163 395.744Z" stroke="white" stroke-width="0.8127" stroke-linecap="round" stroke-linejoin="round"/>
</g>
<g opacity="0.89">
<path opacity="0.89" d="M-31.1631 389.844C10.2583 389.844 43.8369 356.265 43.8369 314.844C43.8369 273.422 10.2583 239.844 -31.1631 239.844C-72.5844 239.844 -106.163 273.422 -106.163 314.844C-106.163 356.265 -72.5844 389.844 -31.1631 389.844Z" stroke="white" stroke-width="0.9493" stroke-linecap="round" stroke-linejoin="round"/>
</g>
<g opacity="0.89">
<path opacity="0.89" d="M-31.1629 383.944C6.99994 383.944 37.9371 353.007 37.9371 314.844C37.9371 276.681 6.99994 245.744 -31.1629 245.744C-69.3258 245.744 -100.263 276.681 -100.263 314.844C-100.263 353.007 -69.3258 383.944 -31.1629 383.944Z" stroke="white" stroke-width="1.0859" stroke-linecap="round" stroke-linejoin="round"/>
</g>
<g opacity="0.89">
<path opacity="0.89" d="M-31.163 378.044C3.74137 378.044 32.037 349.748 32.037 314.844C32.037 279.939 3.74137 251.644 -31.163 251.644C-66.0674 251.644 -94.363 279.939 -94.363 314.844C-94.363 349.748 -66.0674 378.044 -31.163 378.044Z" stroke="white" stroke-width="1.2225" stroke-linecap="round" stroke-linejoin="round"/>
</g>
<g opacity="0.89">
<path opacity="0.89" d="M-31.1629 372.144C0.483047 372.144 26.1371 346.49 26.1371 314.844C26.1371 283.198 0.483047 257.544 -31.1629 257.544C-62.8088 257.544 -88.4629 283.198 -88.4629 314.844C-88.4629 346.49 -62.8088 372.144 -31.1629 372.144Z" stroke="white" stroke-width="1.3591" stroke-linecap="round" stroke-linejoin="round"/>
</g>
<g opacity="0.89">
<path opacity="0.89" d="M-31.163 366.244C-2.77556 366.244 20.237 343.231 20.237 314.844C20.237 286.456 -2.77556 263.444 -31.163 263.444C-59.5504 263.444 -82.563 286.456 -82.563 314.844C-82.563 343.231 -59.5504 366.244 -31.163 366.244Z" stroke="white" stroke-width="1.4956" stroke-linecap="round" stroke-linejoin="round"/>
</g>
<g opacity="0.89">
<path opacity="0.89" d="M-31.1631 360.344C-6.03413 360.344 14.3369 339.973 14.3369 314.844C14.3369 289.715 -6.03413 269.344 -31.1631 269.344C-56.292 269.344 -76.6631 289.715 -76.6631 314.844C-76.6631 339.973 -56.292 360.344 -31.1631 360.344Z" stroke="white" stroke-width="1.6322" stroke-linecap="round" stroke-linejoin="round"/>
</g>
<g opacity="0.89">
<path opacity="0.89" d="M-31.1629 354.444C-9.29246 354.444 8.43707 336.714 8.43707 314.844C8.43707 292.973 -9.29246 275.244 -31.1629 275.244C-53.0334 275.244 -70.7629 292.973 -70.7629 314.844C-70.7629 336.714 -53.0334 354.444 -31.1629 354.444Z" stroke="white" stroke-width="1.7688" stroke-linecap="round" stroke-linejoin="round"/>
</g>
<g opacity="0.89">
<path opacity="0.89" d="M-31.163 348.554C-12.5455 348.554 2.54697 333.461 2.54697 314.844C2.54697 296.226 -12.5455 281.134 -31.163 281.134C-49.7805 281.134 -64.873 296.226 -64.873 314.844C-64.873 333.461 -49.7805 348.554 -31.163 348.554Z" stroke="white" stroke-width="1.9054" stroke-linecap="round" stroke-linejoin="round"/>
</g>
</g>
<g opacity="0.81">
<g opacity="0.81">
<path opacity="0.81" d="M644.373 226.702C702.915 168.159 702.915 73.2425 644.372 14.6996C585.83 -43.8434 490.913 -43.8434 432.37 14.6995C373.827 73.2425 373.827 168.159 432.37 226.702C490.913 285.245 585.83 285.245 644.373 226.702Z" stroke="white" stroke-width="1.0531" stroke-linecap="round" stroke-linejoin="round"/>
</g>
<g opacity="0.81">
<path opacity="0.81" d="M538.377 264.874C618.005 264.874 682.557 200.322 682.557 120.694C682.557 41.0652 618.005 -23.4863 538.377 -23.4863C458.749 -23.4863 394.197 41.0652 394.197 120.694C394.197 200.322 458.749 264.874 538.377 264.874Z" stroke="white" stroke-width="1.1458" stroke-linecap="round" stroke-linejoin="round"/>
</g>
<g opacity="0.81">
<path opacity="0.81" d="M636.276 218.606C690.348 164.534 690.348 76.8673 636.276 22.7958C582.205 -31.2757 494.538 -31.2757 440.466 22.7958C386.395 76.8673 386.395 164.534 440.466 218.606C494.538 272.677 582.205 272.677 636.276 218.606Z" stroke="white" stroke-width="1.2385" stroke-linecap="round" stroke-linejoin="round"/>
</g>
<g opacity="0.81">
<path opacity="0.81" d="M538.377 253.424C611.682 253.424 671.107 193.998 671.107 120.694C671.107 47.3889 611.682 -12.0363 538.377 -12.0363C465.072 -12.0363 405.647 47.3889 405.647 120.694C405.647 193.998 465.072 253.424 538.377 253.424Z" stroke="white" stroke-width="1.3312" stroke-linecap="round" stroke-linejoin="round"/>
</g>
<g opacity="0.81">
<path opacity="0.81" d="M538.377 247.704C608.523 247.704 665.387 190.839 665.387 120.694C665.387 50.548 608.523 -6.31633 538.377 -6.31633C468.231 -6.31633 411.367 50.548 411.367 120.694C411.367 190.839 468.231 247.704 538.377 247.704Z" stroke="white" stroke-width="1.4239" stroke-linecap="round" stroke-linejoin="round"/>
</g>
<g opacity="0.81">
<path opacity="0.81" d="M538.377 241.974C605.358 241.974 659.657 187.675 659.657 120.694C659.657 53.7126 605.358 -0.586334 538.377 -0.586334C471.396 -0.586334 417.097 53.7126 417.097 120.694C417.097 187.675 471.396 241.974 538.377 241.974Z" stroke="white" stroke-width="1.5166" stroke-linecap="round" stroke-linejoin="round"/>
</g>
<g opacity="0.81">
<path opacity="0.81" d="M538.377 236.244C602.194 236.244 653.927 184.51 653.927 120.694C653.927 56.8772 602.194 5.14368 538.377 5.14368C474.561 5.14368 422.827 56.8772 422.827 120.694C422.827 184.51 474.561 236.244 538.377 236.244Z" stroke="white" stroke-width="1.6093" stroke-linecap="round" stroke-linejoin="round"/>
</g>
<g opacity="0.81">
<path opacity="0.81" d="M538.377 230.524C599.034 230.524 648.207 181.351 648.207 120.694C648.207 60.0362 599.034 10.8637 538.377 10.8637C477.719 10.8637 428.547 60.0362 428.547 120.694C428.547 181.351 477.719 230.524 538.377 230.524Z" stroke="white" stroke-width="1.702" stroke-linecap="round" stroke-linejoin="round"/>
</g>
<g opacity="0.81">
<path opacity="0.81" d="M538.377 224.794C595.87 224.794 642.477 178.187 642.477 120.694C642.477 63.2008 595.87 16.5937 538.377 16.5937C480.884 16.5937 434.277 63.2008 434.277 120.694C434.277 178.187 480.884 224.794 538.377 224.794Z" stroke="white" stroke-width="1.7948" stroke-linecap="round" stroke-linejoin="round"/>
</g>
<g opacity="0.81">
<path opacity="0.81" d="M538.377 219.074C592.711 219.074 636.757 175.027 636.757 120.694C636.757 66.3599 592.711 22.3137 538.377 22.3137C484.043 22.3137 439.997 66.3599 439.997 120.694C439.997 175.027 484.043 219.074 538.377 219.074Z" stroke="white" stroke-width="1.8875" stroke-linecap="round" stroke-linejoin="round"/>
</g>
<g opacity="0.81">
<path opacity="0.81" d="M538.377 213.344C589.546 213.344 631.027 171.863 631.027 120.694C631.027 69.5245 589.546 28.0437 538.377 28.0437C487.208 28.0437 445.727 69.5245 445.727 120.694C445.727 171.863 487.208 213.344 538.377 213.344Z" stroke="white" stroke-width="1.9802" stroke-linecap="round" stroke-linejoin="round"/>
</g>
<g opacity="0.81">
<path opacity="0.81" d="M538.377 207.614C586.382 207.614 625.297 168.698 625.297 120.694C625.297 72.6891 586.382 33.7737 538.377 33.7737C490.372 33.7737 451.457 72.6891 451.457 120.694C451.457 168.698 490.372 207.614 538.377 207.614Z" stroke="white" stroke-width="2.0729" stroke-linecap="round" stroke-linejoin="round"/>
</g>
<g opacity="0.81">
<path opacity="0.81" d="M541.294 201.895C586.113 200.299 621.151 162.672 619.555 117.853C617.958 73.0344 580.331 37.996 535.513 39.5925C490.694 41.189 455.656 78.8159 457.252 123.634C458.849 168.453 496.476 203.492 541.294 201.895Z" stroke="white" stroke-width="2.1656" stroke-linecap="round" stroke-linejoin="round"/>
</g>
<g opacity="0.81">
<path opacity="0.81" d="M538.377 196.164C580.058 196.164 613.847 162.375 613.847 120.694C613.847 79.0127 580.058 45.2237 538.377 45.2237C496.696 45.2237 462.907 79.0127 462.907 120.694C462.907 162.375 496.696 196.164 538.377 196.164Z" stroke="white" stroke-width="2.2583" stroke-linecap="round" stroke-linejoin="round"/>
</g>
<g opacity="0.81">
<path opacity="0.81" d="M540.887 190.452C579.386 189.081 609.483 156.759 608.112 118.261C606.74 79.7619 574.419 49.6643 535.921 51.0356C497.422 52.407 467.324 84.7281 468.696 123.227C470.067 161.726 502.388 191.823 540.887 190.452Z" stroke="white" stroke-width="2.351" stroke-linecap="round" stroke-linejoin="round"/>
</g>
<g opacity="0.81">
<path opacity="0.81" d="M538.377 184.714C573.734 184.714 602.397 156.051 602.397 120.694C602.397 85.3364 573.734 56.6737 538.377 56.6737C503.02 56.6737 474.357 85.3364 474.357 120.694C474.357 156.051 503.02 184.714 538.377 184.714Z" stroke="white" stroke-width="2.4437" stroke-linecap="round" stroke-linejoin="round"/>
</g>
<g opacity="0.81">
<path opacity="0.81" d="M540.479 178.999C572.652 177.853 597.805 150.842 596.659 118.669C595.513 86.4953 568.502 61.3427 536.329 62.4887C504.155 63.6348 479.003 90.6455 480.149 122.819C481.295 154.992 508.305 180.145 540.479 178.999Z" stroke="white" stroke-width="2.5364" stroke-linecap="round" stroke-linejoin="round"/>
</g>
<g opacity="0.81">
<path opacity="0.81" d="M538.377 173.264C567.411 173.264 590.947 149.727 590.947 120.694C590.947 91.66 567.411 68.1237 538.377 68.1237C509.344 68.1237 485.807 91.66 485.807 120.694C485.807 149.727 509.344 173.264 538.377 173.264Z" stroke="white" stroke-width="2.6292" stroke-linecap="round" stroke-linejoin="round"/>
</g>
<g opacity="0.81">
<path opacity="0.81" d="M540.071 167.556C565.925 166.635 586.137 144.93 585.216 119.076C584.295 93.2228 562.59 73.011 536.736 73.9319C510.883 74.8529 490.671 96.5578 491.592 122.411C492.513 148.265 514.218 168.477 540.071 167.556Z" stroke="white" stroke-width="2.7219" stroke-linecap="round" stroke-linejoin="round"/>
</g>
<g opacity="0.81">
<path opacity="0.81" d="M538.377 161.814C561.087 161.814 579.497 143.404 579.497 120.694C579.497 97.9837 561.087 79.5737 538.377 79.5737C515.667 79.5737 497.257 97.9837 497.257 120.694C497.257 143.404 515.667 161.814 538.377 161.814Z" stroke="white" stroke-width="2.8146" stroke-linecap="round" stroke-linejoin="round"/>
</g>
<g opacity="0.81">
<path opacity="0.81" d="M539.663 156.113C559.197 155.417 574.468 139.018 573.772 119.484C573.076 99.9503 556.677 84.6792 537.144 85.375C517.61 86.0708 502.339 102.47 503.035 122.004C503.731 141.537 520.13 156.808 539.663 156.113Z" stroke="white" stroke-width="2.9073" stroke-linecap="round" stroke-linejoin="round"/>
</g>
<g opacity="0.81">
<path opacity="0.81" d="M538.377 150.354C554.758 150.354 568.037 137.074 568.037 120.694C568.037 104.313 554.758 91.0337 538.377 91.0337C521.996 91.0337 508.717 104.313 508.717 120.694C508.717 137.074 521.996 150.354 538.377 150.354Z" stroke="white" stroke-width="3" stroke-linecap="round" stroke-linejoin="round"/>
</g>
</g>
<g opacity="0.77">
<g opacity="0.77">
<path opacity="0.77" d="M62.187 364.904L-77.313 504.404" stroke="white" stroke-width="2" stroke-miterlimit="10"/>
<path opacity="0.77" d="M70.207 364.904L-69.293 504.404" stroke="white" stroke-width="2" stroke-miterlimit="10"/>
<path opacity="0.77" d="M78.217 364.904L-61.283 504.404" stroke="white" stroke-width="2" stroke-miterlimit="10"/>
<path opacity="0.77" d="M86.2371 364.904L-53.2629 504.404" stroke="white" stroke-width="2" stroke-miterlimit="10"/>
<path opacity="0.77" d="M94.2571 364.904L-45.2429 504.404" stroke="white" stroke-width="2" stroke-miterlimit="10"/>
<path opacity="0.77" d="M102.277 364.904L-37.2229 504.404" stroke="white" stroke-width="2" stroke-miterlimit="10"/>
<path opacity="0.77" d="M110.287 364.904L-29.2129 504.404" stroke="white" stroke-width="2" stroke-miterlimit="10"/>
<path opacity="0.77" d="M118.307 364.904L-21.1929 504.404" stroke="white" stroke-width="2" stroke-miterlimit="10"/>
<path opacity="0.77" d="M126.327 364.904L-13.1731 504.404" stroke="white" stroke-width="2" stroke-miterlimit="10"/>
<path opacity="0.77" d="M134.347 364.904L-5.15308 504.404" stroke="white" stroke-width="2" stroke-miterlimit="10"/>
<path opacity="0.77" d="M142.357 364.904L2.85693 504.404" stroke="white" stroke-width="2" stroke-miterlimit="10"/>
<path opacity="0.77" d="M150.377 364.904L10.877 504.404" stroke="white" stroke-width="2" stroke-miterlimit="10"/>
<path opacity="0.77" d="M158.397 364.904L18.897 504.404" stroke="white" stroke-width="2" stroke-miterlimit="10"/>
<path opacity="0.77" d="M166.407 364.904L26.907 504.404" stroke="white" stroke-width="2" stroke-miterlimit="10"/>
<path opacity="0.77" d="M174.427 364.904L34.927 504.404" stroke="white" stroke-width="2" stroke-miterlimit="10"/>
<path opacity="0.77" d="M182.447 364.904L42.947 504.404" stroke="white" stroke-width="2" stroke-miterlimit="10"/>
<path opacity="0.77" d="M190.467 364.904L50.967 504.404" stroke="white" stroke-width="2" stroke-miterlimit="10"/>
<path opacity="0.77" d="M198.477 364.904L58.9771 504.404" stroke="white" stroke-width="2" stroke-miterlimit="10"/>
<path opacity="0.77" d="M206.497 364.904L66.9971 504.404" stroke="white" stroke-width="2" stroke-miterlimit="10"/>
<path opacity="0.77" d="M214.517 364.904L75.0171 504.404" stroke="white" stroke-width="2" stroke-miterlimit="10"/>
<path opacity="0.77" d="M222.527 364.904L83.0271 504.404" stroke="white" stroke-width="2" stroke-miterlimit="10"/>
<path opacity="0.77" d="M230.547 364.904L91.0469 504.404" stroke="white" stroke-width="2" stroke-miterlimit="10"/>
<path opacity="0.77" d="M238.567 364.904L99.0669 504.404" stroke="white" stroke-width="2" stroke-miterlimit="10"/>
<path opacity="0.77" d="M246.587 364.904L107.087 504.404" stroke="white" stroke-width="2" stroke-miterlimit="10"/>
<path opacity="0.77" d="M254.597 364.904L115.097 504.404" stroke="white" stroke-width="2" stroke-miterlimit="10"/>
<path opacity="0.77" d="M262.617 364.904L123.117 504.404" stroke="white" stroke-width="2" stroke-miterlimit="10"/>
<path opacity="0.77" d="M270.637 364.904L131.137 504.404" stroke="white" stroke-width="2" stroke-miterlimit="10"/>
<path opacity="0.77" d="M278.657 364.904L139.157 504.404" stroke="white" stroke-width="2" stroke-miterlimit="10"/>
<path opacity="0.77" d="M286.667 364.904L147.167 504.404" stroke="white" stroke-width="2" stroke-miterlimit="10"/>
<path opacity="0.77" d="M294.687 364.904L155.187 504.404" stroke="white" stroke-width="2" stroke-miterlimit="10"/>
</g>
</g>
<g opacity="0.72">
<path opacity="0.5" d="M138.976 -63L-18 93.9761L138.976 250.952L295.952 93.9762L138.976 -63Z" stroke="white" stroke-width="50" stroke-miterlimit="10"/>
<path opacity="0.5" d="M265.976 508L109 664.976L265.976 821.952L422.952 664.976L265.976 508Z" stroke="white" stroke-width="30" stroke-miterlimit="10"/>
</g>
<path opacity="0.5" d="M306.34 339.77C290.13 323.56 290.13 297.29 306.34 281.08L477.62 109.8C493.83 93.59 520.1 93.59 536.31 109.8C552.52 126.01 552.52 152.28 536.31 168.49L365.03 339.77C348.82 355.97 322.55 355.97 306.34 339.77Z" fill="url(#paint1_linear_5_2043)"/>
<path opacity="0.5" d="M303.17 197.32C295.45 189.6 295.45 177.09 303.17 169.38L380.81 91.74C388.53 84.02 401.04 84.02 408.75 91.74C416.47 99.46 416.47 111.97 408.75 119.68L331.11 197.32C323.4 205.03 310.89 205.03 303.17 197.32Z" fill="url(#paint2_linear_5_2043)"/>
<path opacity="0.5" d="M429.58 340.62C421.86 332.9 421.86 320.39 429.58 312.68L507.22 235.04C514.94 227.32 527.45 227.32 535.16 235.04C542.88 242.76 542.88 255.27 535.16 262.98L457.52 340.62C449.8 348.34 437.29 348.34 429.58 340.62Z" fill="url(#paint3_linear_5_2043)"/>
<g opacity="0.49">
<path opacity="0.49" d="M176.5 434.12C176.5 436.37 174.67 438.2 172.42 438.2C170.17 438.2 168.34 436.37 168.34 434.12C168.34 431.87 170.17 430.04 172.42 430.04C174.67 430.04 176.5 431.87 176.5 434.12Z" stroke="white" stroke-width="2" stroke-miterlimit="10" stroke-linecap="round" stroke-linejoin="round"/>
<path opacity="0.49" d="M48.92 232.55C48.92 234.8 47.09 236.63 44.84 236.63C42.59 236.63 40.76 234.8 40.76 232.55C40.76 230.3 42.59 228.47 44.84 228.47C47.1 228.47 48.92 230.29 48.92 232.55Z" stroke="white" stroke-width="2" stroke-miterlimit="10" stroke-linecap="round" stroke-linejoin="round"/>
<g opacity="0.49">
<path opacity="0.49" d="M125.08 192.03V199.17" stroke="white" stroke-width="2" stroke-miterlimit="10" stroke-linecap="round" stroke-linejoin="round"/>
<path opacity="0.49" d="M128.65 195.6H121.52" stroke="white" stroke-width="2" stroke-miterlimit="10" stroke-linecap="round" stroke-linejoin="round"/>
</g>
<g opacity="0.49">
<path opacity="0.49" d="M425.12 430.56V437.69" stroke="white" stroke-width="2" stroke-miterlimit="10" stroke-linecap="round" stroke-linejoin="round"/>
<path opacity="0.49" d="M428.69 434.12H421.56" stroke="white" stroke-width="2" stroke-miterlimit="10" stroke-linecap="round" stroke-linejoin="round"/>
</g>
<path opacity="0.49" d="M6.62006 345.34L12.1701 335.73H1.07007L6.62006 345.34Z" stroke="white" stroke-width="2" stroke-miterlimit="10" stroke-linecap="round" stroke-linejoin="round"/>
<path opacity="0.49" d="M272.04 199.17L266.49 208.78H277.59L272.04 199.17Z" stroke="white" stroke-width="2" stroke-miterlimit="10" stroke-linecap="round" stroke-linejoin="round"/>
<path opacity="0.49" d="M-2 490.93C0.42 488.51 4.65999 492.75 7.07999 490.33C9.49999 487.91 5.25999 483.67 7.67999 481.25C10.1 478.83 14.34 483.07 16.76 480.65C19.18 478.23 14.94 473.99 17.35 471.57C19.77 469.15 24.01 473.39 26.43 470.97C28.85 468.55 24.61 464.31 27.03 461.88C29.45 459.46 33.69 463.7 36.12 461.28" stroke="white" stroke-width="2" stroke-miterlimit="10" stroke-linecap="round" stroke-linejoin="round"/>
<path opacity="0.49" d="M208.79 471.16C211.21 468.74 215.45 472.98 217.87 470.56C220.29 468.14 216.05 463.9 218.47 461.48C220.89 459.06 225.13 463.3 227.55 460.88C229.97 458.46 225.73 454.22 228.14 451.8C230.56 449.38 234.8 453.62 237.22 451.2C239.64 448.78 235.4 444.54 237.82 442.11C240.24 439.69 244.48 443.93 246.91 441.51" stroke="white" stroke-width="2" stroke-miterlimit="10" stroke-linecap="round" stroke-linejoin="round"/>
<path opacity="0.49" d="M220.72 196.66C223.14 194.24 227.38 198.48 229.8 196.06C232.22 193.64 227.98 189.4 230.4 186.98C232.82 184.56 237.06 188.8 239.48 186.38C241.9 183.96 237.66 179.72 240.07 177.3C242.49 174.88 246.73 179.12 249.15 176.7C251.57 174.28 247.33 170.04 249.75 167.61C252.17 165.19 256.41 169.43 258.84 167.01" stroke="white" stroke-width="2" stroke-miterlimit="10" stroke-linecap="round" stroke-linejoin="round"/>
</g>
</g>
<defs>
<linearGradient id="paint0_linear_5_2043" x1="65.5982" y1="-62.4555" x2="654.468" y2="526.415" gradientUnits="userSpaceOnUse">
<stop offset="0.230503" stop-color="#1EFB09" stop-opacity="0.83"/>
<stop offset="0.5154" stop-color="#23AA84" stop-opacity="0.83"/>
<stop offset="1" stop-color="#11299F"/>
</linearGradient>
<linearGradient id="paint1_linear_5_2043" x1="306.339" y1="339.765" x2="536.311" y2="109.794" gradientUnits="userSpaceOnUse">
<stop stop-color="white"/>
<stop offset="1" stop-opacity="0"/>
</linearGradient>
<linearGradient id="paint2_linear_5_2043" x1="303.17" y1="197.315" x2="408.756" y2="91.7292" gradientUnits="userSpaceOnUse">
<stop stop-color="white"/>
<stop offset="1" stop-opacity="0"/>
</linearGradient>
<linearGradient id="paint3_linear_5_2043" x1="429.575" y1="340.619" x2="535.161" y2="235.033" gradientUnits="userSpaceOnUse">
<stop stop-color="white"/>
<stop offset="1" stop-opacity="0"/>
</linearGradient>
<clipPath id="clip0_5_2043">
<rect width="750" height="497" fill="white"/>
</clipPath>
</defs>
</svg>
